<svg xmlns="http://www.w3.org/2000/svg" width="417" height="449" viewBox="0 0 417 449">
  <g id="Group_378" data-name="Group 378" transform="translate(0.5 -15.5)">
    <path id="Path_113" data-name="Path 113" d="M1680.577,176.476l-32.022,55.93,32.1,56.022,64.033.047,31.866-56.064-31.967-55.928Z" transform="translate(-1648.554 -160.476)" fill="none" stroke="#e0e0e0" stroke-linejoin="round" stroke-width="1"/>
    <path id="Path_118" data-name="Path 118" d="M1680.577,176.476l-32.022,55.93,32.1,56.022,64.033.047,31.866-56.064-31.967-55.928Z" transform="translate(-1648.554 -48.476)" fill="none" stroke="#e0e0e0" stroke-linejoin="round" stroke-width="1"/>
    <path id="Path_119" data-name="Path 119" d="M1680.577,176.476l-32.022,55.93,32.1,56.022,64.033.047,31.866-56.064-31.967-55.928Z" transform="translate(-1648.554 63.524)" fill="none" stroke="#e0e0e0" stroke-linejoin="round" stroke-width="1"/>
    <path id="Path_121" data-name="Path 121" d="M1680.577,176.476l-32.022,55.93,32.1,56.022,64.033.047,31.866-56.064-31.967-55.928Z" transform="translate(-1552.554 7.524)" fill="none" stroke="#e0e0e0" stroke-linejoin="round" stroke-width="1"/>
    <path id="Path_122" data-name="Path 122" d="M1680.577,176.476l-32.022,55.93,32.1,56.022,64.033.047,31.866-56.064-31.967-55.928Z" transform="translate(-1456.554 -48.476)" fill="none" stroke="#e0e0e0" stroke-linejoin="round" stroke-width="1"/>
    <path id="Path_126" data-name="Path 126" d="M1680.577,176.476l-32.022,55.93,32.1,56.022,64.033.047,31.866-56.064-31.967-55.928Z" transform="translate(-1456.554 -160.476)" fill="none" stroke="#e0e0e0" stroke-linejoin="round" stroke-width="1"/>
    <path id="Path_127" data-name="Path 127" d="M1680.577,176.476l-32.022,55.93,32.1,56.022,64.033.047,31.866-56.064-31.967-55.928Z" transform="translate(-1552.554 119.524)" fill="none" stroke="#e0e0e0" stroke-linejoin="round" stroke-width="1"/>
    <path id="Path_128" data-name="Path 128" d="M1680.577,176.476l-32.022,55.93,32.1,56.022,64.033.047,31.866-56.064-31.967-55.928Z" transform="translate(-1360.554 -104.476)" fill="none" stroke="#e0e0e0" stroke-linejoin="round" stroke-width="1"/>
    <path id="Path_129" data-name="Path 129" d="M1680.577,176.476l-32.022,55.93,32.1,56.022,64.033.047,31.866-56.064-31.967-55.928Z" transform="translate(-1648.554 175.524)" fill="none" stroke="#e0e0e0" stroke-linejoin="round" stroke-width="1"/>
    <g id="Group_383" data-name="Group 383" opacity="0.45">
      <path id="Path_120" data-name="Path 120" d="M1680.577,176.476l-32.022,55.93,32.1,56.022,64.033.047,31.866-56.064-31.967-55.928Z" transform="translate(-1552.554 -104.476)" fill="none" stroke="#522da8" stroke-linejoin="round" stroke-width="1"/>
      <text id="IT" transform="translate(160 141)" fill="#522da8" font-size="32" font-family='"Baloo 2", cursive'>
        <tspan x="-13.672" y="0" style='font-family: "Baloo 2", cursive'>IT</tspan></text>
    </g>
  </g>
</svg>
