<svg xmlns="http://www.w3.org/2000/svg" width="417" height="281" viewBox="0 0 417 281">
  <g id="Group_382" data-name="Group 382" transform="translate(-831.5 -503.5)">
    <path id="Path_151" data-name="Path 151" d="M1680.577,176.476l-32.022,55.93,32.1,56.022,64.033.047,31.866-56.064-31.967-55.928Z" transform="translate(-816.554 383.524)" fill="none" stroke="#e0e0e0" stroke-linejoin="round" stroke-width="1"/>
    <path id="Path_152" data-name="Path 152" d="M1680.577,176.476l-32.022,55.93,32.1,56.022,64.033.047,31.866-56.064-31.967-55.928Z" transform="translate(-720.554 327.524)" fill="none" stroke="#e0e0e0" stroke-linejoin="round" stroke-width="1"/>
    <path id="Path_153" data-name="Path 153" d="M1680.577,176.476l-32.022,55.93,32.1,56.022,64.033.047,31.866-56.064-31.967-55.928Z" transform="translate(-816.554 495.524)" fill="none" stroke="#e0e0e0" stroke-linejoin="round" stroke-width="1"/>
    <path id="Path_155" data-name="Path 155" d="M1680.577,176.476l-32.022,55.93,32.1,56.022,64.033.047,31.866-56.064-31.967-55.928Z" transform="translate(-624.554 383.524)" fill="none" stroke="#e0e0e0" stroke-linejoin="round" stroke-width="1"/>
    <path id="Path_158" data-name="Path 158" d="M1680.577,176.476l-32.022,55.93,32.1,56.022,64.033.047,31.866-56.064-31.967-55.928Z" transform="translate(-528.554 439.524)" fill="none" stroke="#e0e0e0" stroke-linejoin="round" stroke-width="1"/>
    <g id="Group_387" data-name="Group 387" opacity="0.45">
      <path id="Path_154" data-name="Path 154" d="M1680.577,176.476l-32.022,55.93,32.1,56.022,64.033.047,31.866-56.064-31.967-55.928Z" transform="translate(-720.554 439.524)" fill="none" stroke="#ff9800" stroke-linejoin="round" stroke-width="1"/>
      <text id="B2B" transform="translate(992 685)" fill="#ff9800" font-size="32" font-family="Roboto-Regular, Roboto"><tspan x="-29.461" y="0">B2B</tspan></text>
    </g>
  </g>
</svg>
