<svg xmlns="http://www.w3.org/2000/svg" width="321" height="393" viewBox="0 0 321 393">
  <g id="Group_379" data-name="Group 379" transform="translate(-735.5 -207.5)">
    <path id="Path_125" data-name="Path 125" d="M1680.577,176.476l-32.022,55.93,32.1,56.022,64.033.047,31.866-56.064-31.967-55.928Z" transform="translate(-912.554 143.524)" fill="none" stroke="#e0e0e0" stroke-linejoin="round" stroke-width="1"/>
    <path id="Path_130" data-name="Path 130" d="M1680.577,176.476l-32.022,55.93,32.1,56.022,64.033.047,31.866-56.064-31.967-55.928Z" transform="translate(-816.554 199.524)" fill="none" stroke="#e0e0e0" stroke-linejoin="round" stroke-width="1"/>
    <path id="Path_132" data-name="Path 132" d="M1680.577,176.476l-32.022,55.93,32.1,56.022,64.033.047,31.866-56.064-31.967-55.928Z" transform="translate(-912.554 31.524)" fill="none" stroke="#e0e0e0" stroke-linejoin="round" stroke-width="1"/>
    <path id="Path_133" data-name="Path 133" d="M1680.577,176.476l-32.022,55.93,32.1,56.022,64.033.047,31.866-56.064-31.967-55.928Z" transform="translate(-720.554 31.524)" fill="none" stroke="#e0e0e0" stroke-linejoin="round" stroke-width="1"/>
    <path id="Path_134" data-name="Path 134" d="M1680.577,176.476l-32.022,55.93,32.1,56.022,64.033.047,31.866-56.064-31.967-55.928Z" transform="translate(-720.554 255.524)" fill="none" stroke="#e0e0e0" stroke-linejoin="round" stroke-width="1"/>
    <path id="Path_135" data-name="Path 135" d="M1680.577,176.476l-32.022,55.93,32.1,56.022,64.033.047,31.866-56.064-31.967-55.928Z" transform="translate(-816.554 311.524)" fill="none" stroke="#e0e0e0" stroke-linejoin="round" stroke-width="1"/>
    <path id="Path_136" data-name="Path 136" d="M1680.577,176.476l-32.022,55.93,32.1,56.022,64.033.047,31.866-56.064-31.967-55.928Z" transform="translate(-720.554 143.524)" fill="none" stroke="#e0e0e0" stroke-linejoin="round" stroke-width="1"/>
    <g id="Group_384" data-name="Group 384" opacity="0.45">
      <path id="Path_131" data-name="Path 131" d="M1680.577,176.476l-32.022,55.93,32.1,56.022,64.033.047,31.866-56.064-31.967-55.928Z" transform="translate(-816.554 87.524)" fill="none" stroke="#4caf50" stroke-linejoin="round" stroke-width="1"/>
      <text id="UI" transform="translate(896 333)" fill="#4caf50" font-size="32" font-family="Roboto-Regular, Roboto"><tspan x="-15.352" y="0">UI</tspan></text>
    </g>
  </g>
</svg>
