<svg id="Group_104" data-name="Group 104" xmlns="http://www.w3.org/2000/svg" width="89" height="89" viewBox="0 0 89 89">
  <g id="Group_123" data-name="Group 123" transform="translate(26 15)">
    <g id="smartphone" transform="translate(-71 5)" opacity="0.25">
      <g id="Group_363" data-name="Group 363" transform="translate(72)">
        <g id="Group_362" data-name="Group 362" transform="translate(0)">
          <path id="Path_98" data-name="Path 98" d="M104.067,0H76.333A4.338,4.338,0,0,0,72,4.333V47.667A4.338,4.338,0,0,0,76.333,52h27.733a4.338,4.338,0,0,0,4.333-4.333V4.333A4.338,4.338,0,0,0,104.067,0Zm2.6,47.667a2.6,2.6,0,0,1-2.6,2.6H76.333a2.6,2.6,0,0,1-2.6-2.6v-2.6h32.933Zm0-4.333H73.733V6.933h32.933Zm0-38.133H73.733V4.333a2.6,2.6,0,0,1,2.6-2.6h27.733a2.6,2.6,0,0,1,2.6,2.6Z" transform="translate(-72)" fill="#522da8"/>
        </g>
      </g>
      <g id="Group_365" data-name="Group 365" transform="translate(76.951 11.286)">
        <g id="Group_364" data-name="Group 364" transform="translate(0)">
          <path id="Path_99" data-name="Path 99" d="M147.01,114.3l-2.827-2.554a2.954,2.954,0,0,0-3.783,0l-1.675,1.512-8.547-7.72,1.675-1.512a2.257,2.257,0,0,0,0-3.417l-2.828-2.554a2.954,2.954,0,0,0-3.782,0l-1.72,1.554a6.772,6.772,0,0,0,0,10.251l10.42,9.411a8.643,8.643,0,0,0,11.348,0l1.72-1.554A2.257,2.257,0,0,0,147.01,114.3Zm-1.261,2.278-1.72,1.554a6.723,6.723,0,0,1-8.826,0l-10.42-9.411a5.268,5.268,0,0,1,0-7.973l1.72-1.554a.96.96,0,0,1,1.26,0h0l2.828,2.554a.753.753,0,0,1,0,1.14l-2.306,2.082a.751.751,0,0,0,0,1.139l9.808,8.859a.959.959,0,0,0,1.261,0l2.306-2.082a.985.985,0,0,1,1.261,0l2.828,2.554A.753.753,0,0,1,145.749,116.574Z" transform="translate(-121.176 -97.367)" fill="#522da8"/>
        </g>
      </g>
      <g id="Group_367" data-name="Group 367" transform="translate(89.294 37.779)">
        <g id="Group_366" data-name="Group 366" transform="translate(0)">
          <rect id="Rectangle_60" data-name="Rectangle 60" width="2" height="2" fill="#522da8"/>
        </g>
      </g>
      <g id="Group_369" data-name="Group 369" transform="translate(86.052 37.779)">
        <g id="Group_368" data-name="Group 368">
          <rect id="Rectangle_61" data-name="Rectangle 61" width="2" height="2" fill="#522da8"/>
        </g>
      </g>
      <g id="Group_371" data-name="Group 371" transform="translate(92.537 37.779)">
        <g id="Group_370" data-name="Group 370" transform="translate(0)">
          <rect id="Rectangle_62" data-name="Rectangle 62" width="2" height="2" fill="#522da8"/>
        </g>
      </g>
      <g id="Group_373" data-name="Group 373" transform="translate(90.374 19.189)">
        <g id="Group_372" data-name="Group 372" transform="translate(0)">
          <path id="Path_100" data-name="Path 100" d="M240,176v1.611a2.419,2.419,0,0,1,2.416,2.416h1.611A4.031,4.031,0,0,0,240,176Z" transform="translate(-240 -176)" fill="#522da8"/>
        </g>
      </g>
      <g id="Group_375" data-name="Group 375" transform="translate(90.551 15.795)">
        <g id="Group_374" data-name="Group 374" transform="translate(0)">
          <path id="Path_101" data-name="Path 101" d="M240,144v1.611a5.644,5.644,0,0,1,5.638,5.638h1.611A7.257,7.257,0,0,0,240,144Z" transform="translate(-240 -144)" fill="#522da8"/>
        </g>
      </g>
      <g id="Group_377" data-name="Group 377" transform="translate(90.777 12.371)">
        <g id="Group_376" data-name="Group 376" transform="translate(0)">
          <path id="Path_102" data-name="Path 102" d="M240,112v1.611a8.869,8.869,0,0,1,8.859,8.859h1.611A10.482,10.482,0,0,0,240,112Z" transform="translate(-240 -112)" fill="#522da8"/>
        </g>
      </g>
    </g>
    <g id="smartphone-2" data-name="smartphone" transform="translate(-73 3)">
      <g id="Group_363-2" data-name="Group 363" transform="translate(72)">
        <g id="Group_362-2" data-name="Group 362" transform="translate(0)">
          <path id="Path_98-2" data-name="Path 98" d="M104.067,0H76.333A4.338,4.338,0,0,0,72,4.333V47.667A4.338,4.338,0,0,0,76.333,52h27.733a4.338,4.338,0,0,0,4.333-4.333V4.333A4.338,4.338,0,0,0,104.067,0Zm2.6,47.667a2.6,2.6,0,0,1-2.6,2.6H76.333a2.6,2.6,0,0,1-2.6-2.6v-2.6h32.933Zm0-4.333H73.733V6.933h32.933Zm0-38.133H73.733V4.333a2.6,2.6,0,0,1,2.6-2.6h27.733a2.6,2.6,0,0,1,2.6,2.6Z" transform="translate(-72)" fill="#616161"/>
        </g>
      </g>
      <g id="Group_365-2" data-name="Group 365" transform="translate(76.951 11.286)">
        <g id="Group_364-2" data-name="Group 364" transform="translate(0)">
          <path id="Path_99-2" data-name="Path 99" d="M147.01,114.3l-2.827-2.554a2.954,2.954,0,0,0-3.783,0l-1.675,1.512-8.547-7.72,1.675-1.512a2.257,2.257,0,0,0,0-3.417l-2.828-2.554a2.954,2.954,0,0,0-3.782,0l-1.72,1.554a6.772,6.772,0,0,0,0,10.251l10.42,9.411a8.643,8.643,0,0,0,11.348,0l1.72-1.554A2.257,2.257,0,0,0,147.01,114.3Zm-1.261,2.278-1.72,1.554a6.723,6.723,0,0,1-8.826,0l-10.42-9.411a5.268,5.268,0,0,1,0-7.973l1.72-1.554a.96.96,0,0,1,1.26,0h0l2.828,2.554a.753.753,0,0,1,0,1.14l-2.306,2.082a.751.751,0,0,0,0,1.139l9.808,8.859a.959.959,0,0,0,1.261,0l2.306-2.082a.985.985,0,0,1,1.261,0l2.828,2.554A.753.753,0,0,1,145.749,116.574Z" transform="translate(-121.176 -97.367)" fill="#616161"/>
        </g>
      </g>
      <g id="Group_367-2" data-name="Group 367" transform="translate(89.294 37.779)">
        <g id="Group_366-2" data-name="Group 366" transform="translate(0)">
          <rect id="Rectangle_60-2" data-name="Rectangle 60" width="2" height="2" fill="#616161"/>
        </g>
      </g>
      <g id="Group_369-2" data-name="Group 369" transform="translate(86.052 37.779)">
        <g id="Group_368-2" data-name="Group 368">
          <rect id="Rectangle_61-2" data-name="Rectangle 61" width="2" height="2" fill="#616161"/>
        </g>
      </g>
      <g id="Group_371-2" data-name="Group 371" transform="translate(92.537 37.779)">
        <g id="Group_370-2" data-name="Group 370" transform="translate(0)">
          <rect id="Rectangle_62-2" data-name="Rectangle 62" width="2" height="2" fill="#616161"/>
        </g>
      </g>
      <g id="Group_373-2" data-name="Group 373" transform="translate(90.374 19.189)">
        <g id="Group_372-2" data-name="Group 372" transform="translate(0)">
          <path id="Path_100-2" data-name="Path 100" d="M240,176v1.611a2.419,2.419,0,0,1,2.416,2.416h1.611A4.031,4.031,0,0,0,240,176Z" transform="translate(-240 -176)" fill="#616161"/>
        </g>
      </g>
      <g id="Group_375-2" data-name="Group 375" transform="translate(90.551 15.795)">
        <g id="Group_374-2" data-name="Group 374" transform="translate(0)">
          <path id="Path_101-2" data-name="Path 101" d="M240,144v1.611a5.644,5.644,0,0,1,5.638,5.638h1.611A7.257,7.257,0,0,0,240,144Z" transform="translate(-240 -144)" fill="#616161"/>
        </g>
      </g>
      <g id="Group_377-2" data-name="Group 377" transform="translate(90.777 12.371)">
        <g id="Group_376-2" data-name="Group 376" transform="translate(0)">
          <path id="Path_102-2" data-name="Path 102" d="M240,112v1.611a8.869,8.869,0,0,1,8.859,8.859h1.611A10.482,10.482,0,0,0,240,112Z" transform="translate(-240 -112)" fill="#616161"/>
        </g>
      </g>
    </g>
  </g>
  <g id="Group_101" data-name="Group 101">
    <g id="Path_27" data-name="Path 27" transform="translate(2 2)" fill="none" opacity="0.25">
      <path d="M43.5,0A43.5,43.5,0,1,1,0,43.5,43.5,43.5,0,0,1,43.5,0Z" stroke="none"/>
      <path d="M 43.5 2 C 37.89664840698242 2 32.46197509765625 3.096977233886719 27.34693908691406 5.260452270507812 C 22.40538787841797 7.350547790527344 17.96700286865234 10.3431396484375 14.15505981445312 14.15505981445312 C 10.3431396484375 17.96700286865234 7.350547790527344 22.40538787841797 5.260452270507812 27.34693908691406 C 3.096977233886719 32.46197509765625 2 37.89664840698242 2 43.5 C 2 49.10335159301758 3.096977233886719 54.53802490234375 5.260452270507812 59.65306091308594 C 7.350547790527344 64.59461212158203 10.3431396484375 69.03300476074219 14.15505981445312 72.84494018554688 C 17.96700286865234 76.6568603515625 22.40538787841797 79.64945220947266 27.34693908691406 81.73954772949219 C 32.46197509765625 83.90302276611328 37.89664840698242 85 43.5 85 C 49.10335159301758 85 54.53802490234375 83.90302276611328 59.65306091308594 81.73954772949219 C 64.59461212158203 79.64945220947266 69.03300476074219 76.6568603515625 72.84494018554688 72.84494018554688 C 76.6568603515625 69.03300476074219 79.64945220947266 64.59461212158203 81.73954772949219 59.65306091308594 C 83.90302276611328 54.53802490234375 85 49.10335159301758 85 43.5 C 85 37.89664840698242 83.90302276611328 32.46197509765625 81.73954772949219 27.34693908691406 C 79.64945220947266 22.40538787841797 76.6568603515625 17.96700286865234 72.84494018554688 14.15505981445312 C 69.03300476074219 10.3431396484375 64.59461212158203 7.350547790527344 59.65306091308594 5.260452270507812 C 54.53802490234375 3.096977233886719 49.10335159301758 2 43.5 2 M 43.5 0 C 67.52438354492188 0 87 19.47560882568359 87 43.5 C 87 67.52438354492188 67.52438354492188 87 43.5 87 C 19.47560882568359 87 0 67.52438354492188 0 43.5 C 0 19.47560882568359 19.47560882568359 0 43.5 0 Z" stroke="none" fill="#522da8"/>
    </g>
    <g id="Ellipse_1" data-name="Ellipse 1" fill="none" stroke="#616161" stroke-width="2">
      <circle cx="43.5" cy="43.5" r="43.5" stroke="none"/>
      <circle cx="43.5" cy="43.5" r="42.5" fill="none"/>
    </g>
  </g>
</svg>
