<svg id="Group_104" data-name="Group 104" xmlns="http://www.w3.org/2000/svg" width="89" height="89" viewBox="0 0 89 89">
  <g id="Group_123" data-name="Group 123" transform="translate(25 16)">
    <g id="email" transform="translate(-4 6)" opacity="0.25">
      <g id="Group_305" data-name="Group 305" transform="translate(26.328 18.001)">
        <g id="Group_304" data-name="Group 304">
          <path id="Path_66" data-name="Path 66" d="M266.35,198.9a3.45,3.45,0,0,0-6.9,0v1.725a3.441,3.441,0,0,0,5.427,2.819,2.582,2.582,0,0,0,4.923-1.094V198.9a6.9,6.9,0,1,0-13.8,0v2.587a6.908,6.908,0,0,0,6.9,6.9h4.312A2.591,2.591,0,0,0,269.8,205.8h-1.725a.863.863,0,0,1-.862.862H262.9a5.18,5.18,0,0,1-5.175-5.175V198.9a5.175,5.175,0,1,1,10.35,0v3.45a.862.862,0,1,1-1.725,0V198.9Zm-1.725,1.725a1.725,1.725,0,0,1-3.45,0V198.9a1.725,1.725,0,0,1,3.45,0Z" transform="translate(-256 -191.999)" fill="#2196f3"/>
        </g>
      </g>
      <g id="Group_307" data-name="Group 307" transform="translate(24.066 44.537)">
        <g id="Group_306" data-name="Group 306">
          <path id="Path_67" data-name="Path 67" d="M232.991,444.287c-.542.105-1.093.191-1.639.255l.2,1.713c.591-.069,1.186-.161,1.771-.275Z" transform="translate(-231.352 -444.287)" fill="#2196f3"/>
        </g>
      </g>
      <g id="Group_309" data-name="Group 309" transform="translate(20.809 44.921)">
        <g id="Group_308" data-name="Group 308">
          <path id="Path_68" data-name="Path 68" d="M201.738,447.847c-.551.021-1.111.022-1.659,0l-.064,1.724c.285.01.572.016.861.016q.467,0,.931-.018Z" transform="translate(-200.016 -447.847)" fill="#2196f3"/>
        </g>
      </g>
      <g id="Group_311" data-name="Group 311" transform="translate(14.048 43.674)">
        <g id="Group_310" data-name="Group 310">
          <path id="Path_69" data-name="Path 69" d="M135.646,436.279l-.582,1.624c.559.2,1.133.383,1.707.539l.455-1.664C136.7,436.633,136.165,436.465,135.646,436.279Z" transform="translate(-135.064 -436.279)" fill="#2196f3"/>
        </g>
      </g>
      <g id="Group_313" data-name="Group 313" transform="translate(17.379 44.55)">
        <g id="Group_312" data-name="Group 312">
          <path id="Path_70" data-name="Path 70" d="M167.4,444.407l-.326,1.694c.582.112,1.177.2,1.77.27l.194-1.714C168.488,444.6,167.937,444.511,167.4,444.407Z" transform="translate(-167.072 -444.407)" fill="#2196f3"/>
        </g>
      </g>
      <g id="Group_315" data-name="Group 315" transform="translate(10.897 42.319)">
        <g id="Group_314" data-name="Group 314">
          <path id="Path_71" data-name="Path 71" d="M105.609,423.711l-.825,1.514c.524.286,1.064.555,1.6.8l.707-1.573C106.6,424.224,106.1,423.976,105.609,423.711Z" transform="translate(-104.784 -423.711)" fill="#2196f3"/>
        </g>
      </g>
      <g id="Group_317" data-name="Group 317" transform="translate(5.628 38.302)">
        <g id="Group_316" data-name="Group 316">
          <path id="Path_72" data-name="Path 72" d="M53.453,386.455l-1.245,1.2c.416.432.849.85,1.289,1.243l1.149-1.287C54.238,387.243,53.837,386.856,53.453,386.455Z" transform="translate(-52.208 -386.455)" fill="#2196f3"/>
        </g>
      </g>
      <g id="Group_319" data-name="Group 319" transform="translate(8.001 40.512)">
        <g id="Group_318" data-name="Group 318">
          <path id="Path_73" data-name="Path 73" d="M77.994,406.951l-1.05,1.37c.471.36.963.708,1.463,1.033l.94-1.446C78.884,407.606,78.429,407.285,77.994,406.951Z" transform="translate(-76.944 -406.951)" fill="#2196f3"/>
        </g>
      </g>
      <g id="Group_321" data-name="Group 321" transform="translate(27.2 43.65)">
        <g id="Group_320" data-name="Group 320">
          <path id="Path_74" data-name="Path 74" d="M263.1,436.063c-.517.188-1.049.358-1.58.505l.461,1.662c.573-.159,1.147-.342,1.707-.546Z" transform="translate(-261.52 -436.063)" fill="#2196f3"/>
        </g>
      </g>
      <g id="Group_323" data-name="Group 323" transform="translate(33.001 40.466)">
        <g id="Group_322" data-name="Group 322">
          <path id="Path_75" data-name="Path 75" d="M318.7,406.527c-.432.334-.886.656-1.35.961l.945,1.443c.5-.328.992-.678,1.459-1.038Z" transform="translate(-317.352 -406.527)" fill="#2196f3"/>
        </g>
      </g>
      <g id="Group_325" data-name="Group 325" transform="translate(35.533 38.301)">
        <g id="Group_324" data-name="Group 324">
          <path id="Path_76" data-name="Path 76" d="M342.835,386.447c-.367.381-.749.751-1.138,1.1l1.154,1.282c.42-.378.833-.777,1.227-1.187Z" transform="translate(-341.696 -386.447)" fill="#2196f3"/>
        </g>
      </g>
      <g id="Group_327" data-name="Group 327" transform="translate(30.201 42.281)">
        <g id="Group_326" data-name="Group 326">
          <path id="Path_77" data-name="Path 77" d="M291.891,423.359c-.48.265-.978.515-1.483.743l.714,1.571c.543-.248,1.082-.517,1.6-.8Z" transform="translate(-290.408 -423.359)" fill="#2196f3"/>
        </g>
      </g>
      <g id="Group_329" data-name="Group 329" transform="translate(17.308 0.157)">
        <g id="Group_328" data-name="Group 328" transform="translate(0 0)">
          <path id="Path_78" data-name="Path 78" d="M168.155,17.455c-.591.069-1.186.161-1.771.275l.33,1.693c.542-.105,1.093-.191,1.639-.255Z" transform="translate(-166.384 -17.455)" fill="#2196f3"/>
        </g>
      </g>
      <g id="Group_331" data-name="Group 331" transform="translate(20.741)">
        <g id="Group_330" data-name="Group 330" transform="translate(0 0)">
          <path id="Path_79" data-name="Path 79" d="M199.368,16.019l.069,1.723c.55-.022,1.11-.022,1.659,0l.064-1.724C200.566,16,199.964,16,199.368,16.019Z" transform="translate(-199.368 -16.002)" fill="#2196f3"/>
        </g>
      </g>
      <g id="Group_333" data-name="Group 333" transform="translate(13.975 0.844)">
        <g id="Group_332" data-name="Group 332">
          <path id="Path_80" data-name="Path 80" d="M136.075,23.831c-.573.159-1.147.342-1.707.546L134.956,26c.517-.188,1.049-.358,1.58-.505Z" transform="translate(-134.368 -23.831)" fill="#2196f3"/>
        </g>
      </g>
      <g id="Group_335" data-name="Group 335" transform="translate(10.828 2.067)">
        <g id="Group_334" data-name="Group 334" transform="translate(0 0)">
          <path id="Path_81" data-name="Path 81" d="M105.721,35.175c-.543.248-1.082.517-1.6.8l.832,1.511c.48-.265.978-.515,1.483-.743Z" transform="translate(-104.12 -35.175)" fill="#2196f3"/>
        </g>
      </g>
      <g id="Group_337" data-name="Group 337" transform="translate(27.134 0.825)">
        <g id="Group_336" data-name="Group 336" transform="translate(0 0)">
          <path id="Path_82" data-name="Path 82" d="M261.335,23.655l-.455,1.663c.53.145,1.061.313,1.579.5l.583-1.623C262.483,23.993,261.909,23.811,261.335,23.655Z" transform="translate(-260.88 -23.655)" fill="#2196f3"/>
        </g>
      </g>
      <g id="Group_339" data-name="Group 339" transform="translate(24 0.148)">
        <g id="Group_338" data-name="Group 338" transform="translate(0 0)">
          <path id="Path_83" data-name="Path 83" d="M230.913,17.375l-.193,1.715c.548.062,1.1.146,1.638.25l.325-1.695C232.1,17.533,231.506,17.442,230.913,17.375Z" transform="translate(-230.72 -17.375)" fill="#2196f3"/>
        </g>
      </g>
      <g id="Group_341" data-name="Group 341" transform="translate(7.939 3.792)">
        <g id="Group_340" data-name="Group 340">
          <path id="Path_84" data-name="Path 84" d="M77.8,51.175c-.5.328-.992.678-1.459,1.038L77.4,53.579c.432-.334.886-.656,1.35-.961Z" transform="translate(-76.344 -51.175)" fill="#2196f3"/>
        </g>
      </g>
      <g id="Group_343" data-name="Group 343" transform="translate(32.94 3.747)">
        <g id="Group_342" data-name="Group 342">
          <path id="Path_85" data-name="Path 85" d="M317.708,50.759l-.94,1.446c.463.3.918.623,1.353.956l1.05-1.37C318.7,51.433,318.208,51.084,317.708,50.759Z" transform="translate(-316.768 -50.759)" fill="#2196f3"/>
        </g>
      </g>
      <g id="Group_345" data-name="Group 345" transform="translate(35.479 5.921)">
        <g id="Group_344" data-name="Group 344">
          <path id="Path_86" data-name="Path 86" d="M342.333,70.927l-1.149,1.287c.407.363.808.75,1.193,1.151l1.245-1.2C343.206,71.738,342.773,71.319,342.333,70.927Z" transform="translate(-341.184 -70.927)" fill="#2196f3"/>
        </g>
      </g>
      <g id="Group_347" data-name="Group 347" transform="translate(5.629 5.977)">
        <g id="Group_346" data-name="Group 346">
          <path id="Path_87" data-name="Path 87" d="M53.443,71.439c-.42.378-.833.777-1.227,1.187l1.243,1.2c.367-.38.749-.75,1.138-1.1Z" transform="translate(-52.216 -71.439)" fill="#2196f3"/>
        </g>
      </g>
      <g id="Group_349" data-name="Group 349" transform="translate(30.137 2.033)">
        <g id="Group_348" data-name="Group 348">
          <path id="Path_88" data-name="Path 88" d="M290.491,34.855l-.707,1.573c.5.224,1,.473,1.486.737l.825-1.514C291.57,35.366,291.03,35.1,290.491,34.855Z" transform="translate(-289.784 -34.855)" fill="#2196f3"/>
        </g>
      </g>
      <g id="Group_351" data-name="Group 351" transform="translate(0 8.669)">
        <g id="Group_350" data-name="Group 350">
          <path id="Path_89" data-name="Path 89" d="M50,105.724V104H.833a.848.848,0,0,0-.833.862v24.149a4.246,4.246,0,0,0,4.167,4.312h35a4.246,4.246,0,0,0,4.167-4.312V112.624H45V110.9H43.333v-1.725H47.5v-1.725H43.333v-1.725Zm-10.908,0L21.667,115.1,4.242,105.724Zm2.575,23.287a2.548,2.548,0,0,1-2.5,2.587h-35a2.548,2.548,0,0,1-2.5-2.587V106.282l19.616,10.557a.806.806,0,0,0,.768,0l19.616-10.557Z" transform="translate(0 -103.999)" fill="#2196f3"/>
        </g>
      </g>
      <g id="Group_353" data-name="Group 353" transform="translate(3 31.808)">
        <g id="Group_352" data-name="Group 352" transform="translate(0 0)">
          <rect id="Rectangle_57" data-name="Rectangle 57" width="2" height="3" fill="#2196f3"/>
        </g>
      </g>
      <g id="Group_355" data-name="Group 355" transform="translate(7 31.808)">
        <g id="Group_354" data-name="Group 354" transform="translate(0 0)">
          <rect id="Rectangle_58" data-name="Rectangle 58" width="2" height="3" fill="#2196f3"/>
        </g>
      </g>
      <g id="Group_357" data-name="Group 357" transform="translate(9.649 31.808)">
        <g id="Group_356" data-name="Group 356" transform="translate(0 0)">
          <rect id="Rectangle_59" data-name="Rectangle 59" width="2" height="3" fill="#2196f3"/>
        </g>
      </g>
    </g>
    <g id="email-2" data-name="email" transform="translate(-6 4)">
      <g id="Group_305-2" data-name="Group 305" transform="translate(26.328 18.001)">
        <g id="Group_304-2" data-name="Group 304">
          <path id="Path_66-2" data-name="Path 66" d="M266.35,198.9a3.45,3.45,0,0,0-6.9,0v1.725a3.441,3.441,0,0,0,5.427,2.819,2.582,2.582,0,0,0,4.923-1.094V198.9a6.9,6.9,0,1,0-13.8,0v2.587a6.908,6.908,0,0,0,6.9,6.9h4.312A2.591,2.591,0,0,0,269.8,205.8h-1.725a.863.863,0,0,1-.862.862H262.9a5.18,5.18,0,0,1-5.175-5.175V198.9a5.175,5.175,0,1,1,10.35,0v3.45a.862.862,0,1,1-1.725,0V198.9Zm-1.725,1.725a1.725,1.725,0,0,1-3.45,0V198.9a1.725,1.725,0,0,1,3.45,0Z" transform="translate(-256 -191.999)" fill="#616161"/>
        </g>
      </g>
      <g id="Group_307-2" data-name="Group 307" transform="translate(24.066 44.537)">
        <g id="Group_306-2" data-name="Group 306">
          <path id="Path_67-2" data-name="Path 67" d="M232.991,444.287c-.542.105-1.093.191-1.639.255l.2,1.713c.591-.069,1.186-.161,1.771-.275Z" transform="translate(-231.352 -444.287)" fill="#616161"/>
        </g>
      </g>
      <g id="Group_309-2" data-name="Group 309" transform="translate(20.809 44.921)">
        <g id="Group_308-2" data-name="Group 308">
          <path id="Path_68-2" data-name="Path 68" d="M201.738,447.847c-.551.021-1.111.022-1.659,0l-.064,1.724c.285.01.572.016.861.016q.467,0,.931-.018Z" transform="translate(-200.016 -447.847)" fill="#616161"/>
        </g>
      </g>
      <g id="Group_311-2" data-name="Group 311" transform="translate(14.048 43.674)">
        <g id="Group_310-2" data-name="Group 310">
          <path id="Path_69-2" data-name="Path 69" d="M135.646,436.279l-.582,1.624c.559.2,1.133.383,1.707.539l.455-1.664C136.7,436.633,136.165,436.465,135.646,436.279Z" transform="translate(-135.064 -436.279)" fill="#616161"/>
        </g>
      </g>
      <g id="Group_313-2" data-name="Group 313" transform="translate(17.379 44.55)">
        <g id="Group_312-2" data-name="Group 312">
          <path id="Path_70-2" data-name="Path 70" d="M167.4,444.407l-.326,1.694c.582.112,1.177.2,1.77.27l.194-1.714C168.488,444.6,167.937,444.511,167.4,444.407Z" transform="translate(-167.072 -444.407)" fill="#616161"/>
        </g>
      </g>
      <g id="Group_315-2" data-name="Group 315" transform="translate(10.897 42.319)">
        <g id="Group_314-2" data-name="Group 314">
          <path id="Path_71-2" data-name="Path 71" d="M105.609,423.711l-.825,1.514c.524.286,1.064.555,1.6.8l.707-1.573C106.6,424.224,106.1,423.976,105.609,423.711Z" transform="translate(-104.784 -423.711)" fill="#616161"/>
        </g>
      </g>
      <g id="Group_317-2" data-name="Group 317" transform="translate(5.628 38.302)">
        <g id="Group_316-2" data-name="Group 316">
          <path id="Path_72-2" data-name="Path 72" d="M53.453,386.455l-1.245,1.2c.416.432.849.85,1.289,1.243l1.149-1.287C54.238,387.243,53.837,386.856,53.453,386.455Z" transform="translate(-52.208 -386.455)" fill="#616161"/>
        </g>
      </g>
      <g id="Group_319-2" data-name="Group 319" transform="translate(8.001 40.512)">
        <g id="Group_318-2" data-name="Group 318">
          <path id="Path_73-2" data-name="Path 73" d="M77.994,406.951l-1.05,1.37c.471.36.963.708,1.463,1.033l.94-1.446C78.884,407.606,78.429,407.285,77.994,406.951Z" transform="translate(-76.944 -406.951)" fill="#616161"/>
        </g>
      </g>
      <g id="Group_321-2" data-name="Group 321" transform="translate(27.2 43.65)">
        <g id="Group_320-2" data-name="Group 320">
          <path id="Path_74-2" data-name="Path 74" d="M263.1,436.063c-.517.188-1.049.358-1.58.505l.461,1.662c.573-.159,1.147-.342,1.707-.546Z" transform="translate(-261.52 -436.063)" fill="#616161"/>
        </g>
      </g>
      <g id="Group_323-2" data-name="Group 323" transform="translate(33.001 40.466)">
        <g id="Group_322-2" data-name="Group 322">
          <path id="Path_75-2" data-name="Path 75" d="M318.7,406.527c-.432.334-.886.656-1.35.961l.945,1.443c.5-.328.992-.678,1.459-1.038Z" transform="translate(-317.352 -406.527)" fill="#616161"/>
        </g>
      </g>
      <g id="Group_325-2" data-name="Group 325" transform="translate(35.533 38.301)">
        <g id="Group_324-2" data-name="Group 324">
          <path id="Path_76-2" data-name="Path 76" d="M342.835,386.447c-.367.381-.749.751-1.138,1.1l1.154,1.282c.42-.378.833-.777,1.227-1.187Z" transform="translate(-341.696 -386.447)" fill="#616161"/>
        </g>
      </g>
      <g id="Group_327-2" data-name="Group 327" transform="translate(30.201 42.281)">
        <g id="Group_326-2" data-name="Group 326">
          <path id="Path_77-2" data-name="Path 77" d="M291.891,423.359c-.48.265-.978.515-1.483.743l.714,1.571c.543-.248,1.082-.517,1.6-.8Z" transform="translate(-290.408 -423.359)" fill="#616161"/>
        </g>
      </g>
      <g id="Group_329-2" data-name="Group 329" transform="translate(17.308 0.157)">
        <g id="Group_328-2" data-name="Group 328" transform="translate(0 0)">
          <path id="Path_78-2" data-name="Path 78" d="M168.155,17.455c-.591.069-1.186.161-1.771.275l.33,1.693c.542-.105,1.093-.191,1.639-.255Z" transform="translate(-166.384 -17.455)" fill="#616161"/>
        </g>
      </g>
      <g id="Group_331-2" data-name="Group 331" transform="translate(20.741)">
        <g id="Group_330-2" data-name="Group 330" transform="translate(0 0)">
          <path id="Path_79-2" data-name="Path 79" d="M199.368,16.019l.069,1.723c.55-.022,1.11-.022,1.659,0l.064-1.724C200.566,16,199.964,16,199.368,16.019Z" transform="translate(-199.368 -16.002)" fill="#616161"/>
        </g>
      </g>
      <g id="Group_333-2" data-name="Group 333" transform="translate(13.975 0.844)">
        <g id="Group_332-2" data-name="Group 332">
          <path id="Path_80-2" data-name="Path 80" d="M136.075,23.831c-.573.159-1.147.342-1.707.546L134.956,26c.517-.188,1.049-.358,1.58-.505Z" transform="translate(-134.368 -23.831)" fill="#616161"/>
        </g>
      </g>
      <g id="Group_335-2" data-name="Group 335" transform="translate(10.828 2.067)">
        <g id="Group_334-2" data-name="Group 334" transform="translate(0 0)">
          <path id="Path_81-2" data-name="Path 81" d="M105.721,35.175c-.543.248-1.082.517-1.6.8l.832,1.511c.48-.265.978-.515,1.483-.743Z" transform="translate(-104.12 -35.175)" fill="#616161"/>
        </g>
      </g>
      <g id="Group_337-2" data-name="Group 337" transform="translate(27.134 0.825)">
        <g id="Group_336-2" data-name="Group 336" transform="translate(0 0)">
          <path id="Path_82-2" data-name="Path 82" d="M261.335,23.655l-.455,1.663c.53.145,1.061.313,1.579.5l.583-1.623C262.483,23.993,261.909,23.811,261.335,23.655Z" transform="translate(-260.88 -23.655)" fill="#616161"/>
        </g>
      </g>
      <g id="Group_339-2" data-name="Group 339" transform="translate(24 0.148)">
        <g id="Group_338-2" data-name="Group 338" transform="translate(0 0)">
          <path id="Path_83-2" data-name="Path 83" d="M230.913,17.375l-.193,1.715c.548.062,1.1.146,1.638.25l.325-1.695C232.1,17.533,231.506,17.442,230.913,17.375Z" transform="translate(-230.72 -17.375)" fill="#616161"/>
        </g>
      </g>
      <g id="Group_341-2" data-name="Group 341" transform="translate(7.939 3.792)">
        <g id="Group_340-2" data-name="Group 340">
          <path id="Path_84-2" data-name="Path 84" d="M77.8,51.175c-.5.328-.992.678-1.459,1.038L77.4,53.579c.432-.334.886-.656,1.35-.961Z" transform="translate(-76.344 -51.175)" fill="#616161"/>
        </g>
      </g>
      <g id="Group_343-2" data-name="Group 343" transform="translate(32.94 3.747)">
        <g id="Group_342-2" data-name="Group 342">
          <path id="Path_85-2" data-name="Path 85" d="M317.708,50.759l-.94,1.446c.463.3.918.623,1.353.956l1.05-1.37C318.7,51.433,318.208,51.084,317.708,50.759Z" transform="translate(-316.768 -50.759)" fill="#616161"/>
        </g>
      </g>
      <g id="Group_345-2" data-name="Group 345" transform="translate(35.479 5.921)">
        <g id="Group_344-2" data-name="Group 344">
          <path id="Path_86-2" data-name="Path 86" d="M342.333,70.927l-1.149,1.287c.407.363.808.75,1.193,1.151l1.245-1.2C343.206,71.738,342.773,71.319,342.333,70.927Z" transform="translate(-341.184 -70.927)" fill="#616161"/>
        </g>
      </g>
      <g id="Group_347-2" data-name="Group 347" transform="translate(5.629 5.977)">
        <g id="Group_346-2" data-name="Group 346">
          <path id="Path_87-2" data-name="Path 87" d="M53.443,71.439c-.42.378-.833.777-1.227,1.187l1.243,1.2c.367-.38.749-.75,1.138-1.1Z" transform="translate(-52.216 -71.439)" fill="#616161"/>
        </g>
      </g>
      <g id="Group_349-2" data-name="Group 349" transform="translate(30.137 2.033)">
        <g id="Group_348-2" data-name="Group 348">
          <path id="Path_88-2" data-name="Path 88" d="M290.491,34.855l-.707,1.573c.5.224,1,.473,1.486.737l.825-1.514C291.57,35.366,291.03,35.1,290.491,34.855Z" transform="translate(-289.784 -34.855)" fill="#616161"/>
        </g>
      </g>
      <g id="Group_351-2" data-name="Group 351" transform="translate(0 8.669)">
        <g id="Group_350-2" data-name="Group 350" transform="translate(0 0)">
          <path id="Path_89-2" data-name="Path 89" d="M50,105.724V104H.833a.848.848,0,0,0-.833.862v24.149a4.246,4.246,0,0,0,4.167,4.312h35a4.246,4.246,0,0,0,4.167-4.312V112.624H45V110.9H43.333v-1.725H47.5v-1.725H43.333v-1.725Zm-10.908,0L21.667,115.1,4.242,105.724Zm2.575,23.287a2.548,2.548,0,0,1-2.5,2.587h-35a2.548,2.548,0,0,1-2.5-2.587V106.282l19.616,10.557a.806.806,0,0,0,.768,0l19.616-10.557Z" transform="translate(0 -103.999)" fill="#616161"/>
        </g>
      </g>
      <g id="Group_353-2" data-name="Group 353" transform="translate(3 31.808)">
        <g id="Group_352-2" data-name="Group 352" transform="translate(0 0)">
          <rect id="Rectangle_57-2" data-name="Rectangle 57" width="2" height="3" fill="#616161"/>
        </g>
      </g>
      <g id="Group_355-2" data-name="Group 355" transform="translate(7 31.808)">
        <g id="Group_354-2" data-name="Group 354" transform="translate(0 0)">
          <rect id="Rectangle_58-2" data-name="Rectangle 58" width="2" height="3" fill="#616161"/>
        </g>
      </g>
      <g id="Group_357-2" data-name="Group 357" transform="translate(9.649 31.808)">
        <g id="Group_356-2" data-name="Group 356" transform="translate(0 0)">
          <rect id="Rectangle_59-2" data-name="Rectangle 59" width="2" height="3" fill="#616161"/>
        </g>
      </g>
    </g>
  </g>
  <g id="Group_101" data-name="Group 101">
    <g id="Path_27" data-name="Path 27" transform="translate(2 2)" fill="none" opacity="0.25">
      <path d="M43.5,0A43.5,43.5,0,1,1,0,43.5,43.5,43.5,0,0,1,43.5,0Z" stroke="none"/>
      <path d="M 43.5 2 C 37.89664840698242 2 32.46197509765625 3.096977233886719 27.34693908691406 5.260452270507812 C 22.40538787841797 7.350547790527344 17.96700286865234 10.3431396484375 14.15505981445312 14.15505981445312 C 10.3431396484375 17.96700286865234 7.350547790527344 22.40538787841797 5.260452270507812 27.34693908691406 C 3.096977233886719 32.46197509765625 2 37.89664840698242 2 43.5 C 2 49.10335159301758 3.096977233886719 54.53802490234375 5.260452270507812 59.65306091308594 C 7.350547790527344 64.59461212158203 10.3431396484375 69.03300476074219 14.15505981445312 72.84494018554688 C 17.96700286865234 76.6568603515625 22.40538787841797 79.64945220947266 27.34693908691406 81.73954772949219 C 32.46197509765625 83.90302276611328 37.89664840698242 85 43.5 85 C 49.10335159301758 85 54.53802490234375 83.90302276611328 59.65306091308594 81.73954772949219 C 64.59461212158203 79.64945220947266 69.03300476074219 76.6568603515625 72.84494018554688 72.84494018554688 C 76.6568603515625 69.03300476074219 79.64945220947266 64.59461212158203 81.73954772949219 59.65306091308594 C 83.90302276611328 54.53802490234375 85 49.10335159301758 85 43.5 C 85 37.89664840698242 83.90302276611328 32.46197509765625 81.73954772949219 27.34693908691406 C 79.64945220947266 22.40538787841797 76.6568603515625 17.96700286865234 72.84494018554688 14.15505981445312 C 69.03300476074219 10.3431396484375 64.59461212158203 7.350547790527344 59.65306091308594 5.260452270507812 C 54.53802490234375 3.096977233886719 49.10335159301758 2 43.5 2 M 43.5 0 C 67.52438354492188 0 87 19.47560882568359 87 43.5 C 87 67.52438354492188 67.52438354492188 87 43.5 87 C 19.47560882568359 87 0 67.52438354492188 0 43.5 C 0 19.47560882568359 19.47560882568359 0 43.5 0 Z" stroke="none" fill="#2196f3"/>
    </g>
    <g id="Ellipse_1" data-name="Ellipse 1" fill="none" stroke="#616161" stroke-width="2">
      <circle cx="43.5" cy="43.5" r="43.5" stroke="none"/>
      <circle cx="43.5" cy="43.5" r="42.5" fill="none"/>
    </g>
  </g>
</svg>
