<svg id="Group_104" data-name="Group 104" xmlns="http://www.w3.org/2000/svg" width="89" height="89" viewBox="0 0 89 89">
  <g id="Group_123" data-name="Group 123" transform="translate(24 17)">
    <g id="information" transform="translate(-2.829 4.171)" opacity="0.25">
      <path id="Path_90" data-name="Path 90" d="M412,127.089A1.089,1.089,0,1,0,413.089,126,1.089,1.089,0,0,0,412,127.089Zm0,0" transform="translate(-372.386 -113.797)" fill="#424242"/>
      <path id="Path_91" data-name="Path 91" d="M434.775,170.666a20.746,20.746,0,0,1-.416,4.138,1.089,1.089,0,0,0,.849,1.285,1.072,1.072,0,0,0,.219.023,1.09,1.09,0,0,0,1.066-.872,22.916,22.916,0,0,0,.459-4.574,22.622,22.622,0,0,0-2.211-9.808,1.089,1.089,0,1,0-1.966.937A20.464,20.464,0,0,1,434.775,170.666Zm0,0" transform="translate(-391.48 -145.381)" fill="#424242"/>
      <path id="Path_92" data-name="Path 92" d="M207.979,221.246H206.89V207.089A1.089,1.089,0,0,0,205.8,206h-8.712A1.089,1.089,0,0,0,196,207.089v4.356a1.089,1.089,0,0,0,1.089,1.089h1.089v8.712h-1.089A1.089,1.089,0,0,0,196,222.335v4.356a1.089,1.089,0,0,0,1.089,1.089h10.89a1.089,1.089,0,0,0,1.089-1.089v-4.356A1.089,1.089,0,0,0,207.979,221.246ZM206.89,225.6h-8.712v-2.178h1.089a1.089,1.089,0,0,0,1.089-1.089v-10.89a1.089,1.089,0,0,0-1.089-1.089h-1.089v-2.178h6.534v14.157a1.089,1.089,0,0,0,1.089,1.089h1.089Zm0,0" transform="translate(-177.619 -187.481)" fill="#424242"/>
      <path id="Path_93" data-name="Path 93" d="M220.356,114.712A4.356,4.356,0,1,0,216,110.356,4.361,4.361,0,0,0,220.356,114.712Zm0-6.534a2.178,2.178,0,1,1-2.178,2.178A2.181,2.181,0,0,1,220.356,108.178Zm0,0" transform="translate(-195.441 -95.911)" fill="#424242"/>
      <path id="Path_94" data-name="Path 94" d="M24.914,0A25.337,25.337,0,0,0,0,24.915,26.539,26.539,0,0,0,3.536,38.091L.049,48.549a.973.973,0,0,0,1.231,1.231l10.458-3.486a26.533,26.533,0,0,0,13.176,3.536A25.336,25.336,0,0,0,49.829,24.915,25.336,25.336,0,0,0,24.914,0Zm0,47.883A24.343,24.343,0,0,1,12.383,44.4a.973.973,0,0,0-.829-.1L2.512,47.317l3.014-9.043a.972.972,0,0,0-.1-.829A24.342,24.342,0,0,1,1.946,24.915,23.276,23.276,0,0,1,24.914,1.946,23.276,23.276,0,0,1,47.883,24.915,23.276,23.276,0,0,1,24.914,47.883Zm0,0" transform="translate(0)" fill="#424242"/>
    </g>
    <g id="information-2" data-name="information" transform="translate(-5 2)">
      <path id="Path_90-2" data-name="Path 90" d="M412,127.089A1.089,1.089,0,1,0,413.089,126,1.089,1.089,0,0,0,412,127.089Zm0,0" transform="translate(-372.386 -113.797)" fill="#616161"/>
      <path id="Path_91-2" data-name="Path 91" d="M434.775,170.666a20.746,20.746,0,0,1-.416,4.138,1.089,1.089,0,0,0,.849,1.285,1.072,1.072,0,0,0,.219.023,1.09,1.09,0,0,0,1.066-.872,22.916,22.916,0,0,0,.459-4.574,22.622,22.622,0,0,0-2.211-9.808,1.089,1.089,0,1,0-1.966.937A20.464,20.464,0,0,1,434.775,170.666Zm0,0" transform="translate(-391.48 -145.381)" fill="#616161"/>
      <path id="Path_92-2" data-name="Path 92" d="M207.979,221.246H206.89V207.089A1.089,1.089,0,0,0,205.8,206h-8.712A1.089,1.089,0,0,0,196,207.089v4.356a1.089,1.089,0,0,0,1.089,1.089h1.089v8.712h-1.089A1.089,1.089,0,0,0,196,222.335v4.356a1.089,1.089,0,0,0,1.089,1.089h10.89a1.089,1.089,0,0,0,1.089-1.089v-4.356A1.089,1.089,0,0,0,207.979,221.246ZM206.89,225.6h-8.712v-2.178h1.089a1.089,1.089,0,0,0,1.089-1.089v-10.89a1.089,1.089,0,0,0-1.089-1.089h-1.089v-2.178h6.534v14.157a1.089,1.089,0,0,0,1.089,1.089h1.089Zm0,0" transform="translate(-177.619 -187.481)" fill="#616161"/>
      <path id="Path_93-2" data-name="Path 93" d="M220.356,114.712A4.356,4.356,0,1,0,216,110.356,4.361,4.361,0,0,0,220.356,114.712Zm0-6.534a2.178,2.178,0,1,1-2.178,2.178A2.181,2.181,0,0,1,220.356,108.178Zm0,0" transform="translate(-195.441 -95.911)" fill="#616161"/>
      <path id="Path_94-2" data-name="Path 94" d="M24.914,0A25.337,25.337,0,0,0,0,24.915,26.539,26.539,0,0,0,3.536,38.091L.049,48.549a.973.973,0,0,0,1.231,1.231l10.458-3.486a26.533,26.533,0,0,0,13.176,3.536A25.336,25.336,0,0,0,49.829,24.915,25.336,25.336,0,0,0,24.914,0Zm0,47.883A24.343,24.343,0,0,1,12.383,44.4a.973.973,0,0,0-.829-.1L2.512,47.317l3.014-9.043a.972.972,0,0,0-.1-.829A24.342,24.342,0,0,1,1.946,24.915,23.276,23.276,0,0,1,24.914,1.946,23.276,23.276,0,0,1,47.883,24.915,23.276,23.276,0,0,1,24.914,47.883Zm0,0" transform="translate(0)" fill="#616161"/>
    </g>
  </g>
  <g id="Group_101" data-name="Group 101">
    <g id="Path_27" data-name="Path 27" transform="translate(2 2)" fill="none" opacity="0.25">
      <path d="M43.5,0A43.5,43.5,0,1,1,0,43.5,43.5,43.5,0,0,1,43.5,0Z" stroke="none"/>
      <path d="M 43.5 2 C 37.89664840698242 2 32.46197509765625 3.096977233886719 27.34693908691406 5.260452270507812 C 22.40538787841797 7.350547790527344 17.96700286865234 10.3431396484375 14.15505981445312 14.15505981445312 C 10.3431396484375 17.96700286865234 7.350547790527344 22.40538787841797 5.260452270507812 27.34693908691406 C 3.096977233886719 32.46197509765625 2 37.89664840698242 2 43.5 C 2 49.10335159301758 3.096977233886719 54.53802490234375 5.260452270507812 59.65306091308594 C 7.350547790527344 64.59461212158203 10.3431396484375 69.03300476074219 14.15505981445312 72.84494018554688 C 17.96700286865234 76.6568603515625 22.40538787841797 79.64945220947266 27.34693908691406 81.73954772949219 C 32.46197509765625 83.90302276611328 37.89664840698242 85 43.5 85 C 49.10335159301758 85 54.53802490234375 83.90302276611328 59.65306091308594 81.73954772949219 C 64.59461212158203 79.64945220947266 69.03300476074219 76.6568603515625 72.84494018554688 72.84494018554688 C 76.6568603515625 69.03300476074219 79.64945220947266 64.59461212158203 81.73954772949219 59.65306091308594 C 83.90302276611328 54.53802490234375 85 49.10335159301758 85 43.5 C 85 37.89664840698242 83.90302276611328 32.46197509765625 81.73954772949219 27.34693908691406 C 79.64945220947266 22.40538787841797 76.6568603515625 17.96700286865234 72.84494018554688 14.15505981445312 C 69.03300476074219 10.3431396484375 64.59461212158203 7.350547790527344 59.65306091308594 5.260452270507812 C 54.53802490234375 3.096977233886719 49.10335159301758 2 43.5 2 M 43.5 0 C 67.52438354492188 0 87 19.47560882568359 87 43.5 C 87 67.52438354492188 67.52438354492188 87 43.5 87 C 19.47560882568359 87 0 67.52438354492188 0 43.5 C 0 19.47560882568359 19.47560882568359 0 43.5 0 Z" stroke="none" fill="#424242"/>
    </g>
    <g id="Ellipse_1" data-name="Ellipse 1" fill="none" stroke="#616161" stroke-width="2">
      <circle cx="43.5" cy="43.5" r="43.5" stroke="none"/>
      <circle cx="43.5" cy="43.5" r="42.5" fill="none"/>
    </g>
  </g>
</svg>
