<svg id="Group_104" data-name="Group 104" xmlns="http://www.w3.org/2000/svg" width="89" height="89" viewBox="0 0 89 89">
  <g id="Group_254" data-name="Group 254" transform="translate(-1 -1)">
    <g id="briefcase" transform="translate(22.221 22.221)" opacity="0.25">
      <g id="Group_245" data-name="Group 245">
        <g id="Group_244" data-name="Group 244">
          <path id="Path_52" data-name="Path 52" d="M48.12,31.153V12.445A4.153,4.153,0,0,0,43.972,8.3H33.186V4.148A4.153,4.153,0,0,0,29.038,0H19.082a4.153,4.153,0,0,0-4.148,4.148V8.3H4.148A4.153,4.153,0,0,0,0,12.445V41.483a4.153,4.153,0,0,0,4.148,4.148H28.085A12.425,12.425,0,0,0,48.12,31.153Zm-31.527-27a2.492,2.492,0,0,1,2.489-2.489h9.956a2.492,2.492,0,0,1,2.489,2.489V8.3H29.868V4.148a.829.829,0,0,0-.83-.83H19.082a.829.829,0,0,0-.83.83V8.3H16.593Zm11.615.83V8.3h-8.3V4.978ZM1.659,14.1V12.445A2.492,2.492,0,0,1,4.148,9.956H43.972a2.492,2.492,0,0,1,2.489,2.489v9.126a4.153,4.153,0,0,1-4.148,4.148h-.547a12.248,12.248,0,0,0-8.862,0H29.038V23.23a.829.829,0,0,0-.83-.83h-8.3a.829.829,0,0,0-.83.83v2.489H5.808a4.153,4.153,0,0,1-4.148-4.148Zm44.8,11.523V28.9a12.51,12.51,0,0,0-2.166-1.879A5.814,5.814,0,0,0,46.461,25.627ZM27.379,24.06v1.659H20.741V24.06ZM9.956,27.379v2.489H7.467V27.379ZM4.148,43.972a2.492,2.492,0,0,1-2.489-2.489V25.627a5.785,5.785,0,0,0,4.148,1.751V30.7a.829.829,0,0,0,.83.83h4.148a.829.829,0,0,0,.83-.83V27.379H29.9a12.378,12.378,0,0,0-3.073,16.593Zm43.929-5.808a10.788,10.788,0,0,1-9.914,9.914V46.461H36.5v1.617a10.771,10.771,0,0,1-7.467-3.861v-.245H28.85a10.72,10.72,0,0,1-2.26-5.808h1.618V36.5H26.591A10.788,10.788,0,0,1,36.5,26.591v1.617h1.659V26.591A10.788,10.788,0,0,1,48.078,36.5H46.461v1.659Z" fill="#ff9800"/>
        </g>
      </g>
      <g id="Group_247" data-name="Group 247" transform="translate(35.554 28.441)">
        <g id="Group_246" data-name="Group 246" transform="translate(0 0)">
          <path id="Path_53" data-name="Path 53" d="M353.778,295.634V288H352v8a.887.887,0,0,0,.261.629l5.335,5.335,1.257-1.257Z" transform="translate(-352 -288)" fill="#ff9800"/>
        </g>
      </g>
      <g id="Group_249" data-name="Group 249" transform="translate(36.085 22.127)">
        <g id="Group_248" data-name="Group 248" transform="translate(0 0)">
          <rect id="Rectangle_42" data-name="Rectangle 42" width="2" height="2" fill="#ff9800"/>
        </g>
      </g>
      <g id="Group_251" data-name="Group 251" transform="translate(38.819 22.127)">
        <g id="Group_250" data-name="Group 250" transform="translate(0 0)">
          <rect id="Rectangle_43" data-name="Rectangle 43" width="3" height="2" fill="#ff9800"/>
        </g>
      </g>
      <g id="Group_253" data-name="Group 253" transform="translate(33.294 22.127)">
        <g id="Group_252" data-name="Group 252" transform="translate(0 0)">
          <rect id="Rectangle_44" data-name="Rectangle 44" width="2" height="2" fill="#ff9800"/>
        </g>
      </g>
    </g>
    <g id="briefcase-2" data-name="briefcase" transform="translate(20 20)">
      <g id="Group_245-2" data-name="Group 245">
        <g id="Group_244-2" data-name="Group 244">
          <path id="Path_52-2" data-name="Path 52" d="M48.12,31.153V12.445A4.153,4.153,0,0,0,43.972,8.3H33.186V4.148A4.153,4.153,0,0,0,29.038,0H19.082a4.153,4.153,0,0,0-4.148,4.148V8.3H4.148A4.153,4.153,0,0,0,0,12.445V41.483a4.153,4.153,0,0,0,4.148,4.148H28.085A12.425,12.425,0,0,0,48.12,31.153Zm-31.527-27a2.492,2.492,0,0,1,2.489-2.489h9.956a2.492,2.492,0,0,1,2.489,2.489V8.3H29.868V4.148a.829.829,0,0,0-.83-.83H19.082a.829.829,0,0,0-.83.83V8.3H16.593Zm11.615.83V8.3h-8.3V4.978ZM1.659,14.1V12.445A2.492,2.492,0,0,1,4.148,9.956H43.972a2.492,2.492,0,0,1,2.489,2.489v9.126a4.153,4.153,0,0,1-4.148,4.148h-.547a12.248,12.248,0,0,0-8.862,0H29.038V23.23a.829.829,0,0,0-.83-.83h-8.3a.829.829,0,0,0-.83.83v2.489H5.808a4.153,4.153,0,0,1-4.148-4.148Zm44.8,11.523V28.9a12.51,12.51,0,0,0-2.166-1.879A5.814,5.814,0,0,0,46.461,25.627ZM27.379,24.06v1.659H20.741V24.06ZM9.956,27.379v2.489H7.467V27.379ZM4.148,43.972a2.492,2.492,0,0,1-2.489-2.489V25.627a5.785,5.785,0,0,0,4.148,1.751V30.7a.829.829,0,0,0,.83.83h4.148a.829.829,0,0,0,.83-.83V27.379H29.9a12.378,12.378,0,0,0-3.073,16.593Zm43.929-5.808a10.788,10.788,0,0,1-9.914,9.914V46.461H36.5v1.617a10.771,10.771,0,0,1-7.467-3.861v-.245H28.85a10.72,10.72,0,0,1-2.26-5.808h1.618V36.5H26.591A10.788,10.788,0,0,1,36.5,26.591v1.617h1.659V26.591A10.788,10.788,0,0,1,48.078,36.5H46.461v1.659Z" fill="#616161"/>
        </g>
      </g>
      <g id="Group_247-2" data-name="Group 247" transform="translate(35.554 28.441)">
        <g id="Group_246-2" data-name="Group 246" transform="translate(0 0)">
          <path id="Path_53-2" data-name="Path 53" d="M353.778,295.634V288H352v8a.887.887,0,0,0,.261.629l5.335,5.335,1.257-1.257Z" transform="translate(-352 -288)" fill="#616161"/>
        </g>
      </g>
      <g id="Group_249-2" data-name="Group 249" transform="translate(36.291 21.371)">
        <g id="Group_248-2" data-name="Group 248" transform="translate(0 0)">
          <rect id="Rectangle_42-2" data-name="Rectangle 42" width="2" height="3" fill="#616161"/>
        </g>
      </g>
      <g id="Group_251-2" data-name="Group 251" transform="translate(39.083 21.371)">
        <g id="Group_250-2" data-name="Group 250" transform="translate(0 0)">
          <rect id="Rectangle_43-2" data-name="Rectangle 43" width="2" height="3" fill="#616161"/>
        </g>
      </g>
      <g id="Group_253-2" data-name="Group 253" transform="translate(33.499 21.371)">
        <g id="Group_252-2" data-name="Group 252" transform="translate(0 0)">
          <rect id="Rectangle_44-2" data-name="Rectangle 44" width="2" height="3" fill="#616161"/>
        </g>
      </g>
    </g>
  </g>
  <g id="Group_101" data-name="Group 101">
    <g id="Path_27" data-name="Path 27" transform="translate(2 2)" fill="none" opacity="0.25">
      <path d="M43.5,0A43.5,43.5,0,1,1,0,43.5,43.5,43.5,0,0,1,43.5,0Z" stroke="none"/>
      <path d="M 43.5 2 C 37.89664840698242 2 32.46197509765625 3.096977233886719 27.34693908691406 5.260452270507812 C 22.40538787841797 7.350547790527344 17.96700286865234 10.3431396484375 14.15505981445312 14.15505981445312 C 10.3431396484375 17.96700286865234 7.350547790527344 22.40538787841797 5.260452270507812 27.34693908691406 C 3.096977233886719 32.46197509765625 2 37.89664840698242 2 43.5 C 2 49.10335159301758 3.096977233886719 54.53802490234375 5.260452270507812 59.65306091308594 C 7.350547790527344 64.59461212158203 10.3431396484375 69.03300476074219 14.15505981445312 72.84494018554688 C 17.96700286865234 76.6568603515625 22.40538787841797 79.64945220947266 27.34693908691406 81.73954772949219 C 32.46197509765625 83.90302276611328 37.89664840698242 85 43.5 85 C 49.10335159301758 85 54.53802490234375 83.90302276611328 59.65306091308594 81.73954772949219 C 64.59461212158203 79.64945220947266 69.03300476074219 76.6568603515625 72.84494018554688 72.84494018554688 C 76.6568603515625 69.03300476074219 79.64945220947266 64.59461212158203 81.73954772949219 59.65306091308594 C 83.90302276611328 54.53802490234375 85 49.10335159301758 85 43.5 C 85 37.89664840698242 83.90302276611328 32.46197509765625 81.73954772949219 27.34693908691406 C 79.64945220947266 22.40538787841797 76.6568603515625 17.96700286865234 72.84494018554688 14.15505981445312 C 69.03300476074219 10.3431396484375 64.59461212158203 7.350547790527344 59.65306091308594 5.260452270507812 C 54.53802490234375 3.096977233886719 49.10335159301758 2 43.5 2 M 43.5 0 C 67.52438354492188 0 87 19.47560882568359 87 43.5 C 87 67.52438354492188 67.52438354492188 87 43.5 87 C 19.47560882568359 87 0 67.52438354492188 0 43.5 C 0 19.47560882568359 19.47560882568359 0 43.5 0 Z" stroke="none" fill="#ff9800"/>
    </g>
    <g id="Ellipse_1" data-name="Ellipse 1" fill="none" stroke="#616161" stroke-width="2">
      <circle cx="43.5" cy="43.5" r="43.5" stroke="none"/>
      <circle cx="43.5" cy="43.5" r="42.5" fill="none"/>
    </g>
  </g>
</svg>
