<svg xmlns="http://www.w3.org/2000/svg" width="89" height="89" viewBox="0 0 89 89">
  <g id="Group_104" data-name="Group 104" transform="translate(0)">
    <g id="Group_123" data-name="Group 123" transform="translate(19 11)">
      <g id="money" transform="translate(1.766 10.442)" opacity="0.25">
        <g id="Group_201" data-name="Group 201" transform="translate(0 14.775)">
          <g id="Group_200" data-name="Group 200">
            <path id="Path_39" data-name="Path 39" d="M41.6,160.017H.7a.733.733,0,0,0-.7.762V182.16a.734.734,0,0,0,.7.763H28.514a.766.766,0,0,0,0-1.527H1.4V161.544H40.9v1.909a.734.734,0,0,0,.7.763h0a.733.733,0,0,0,.7-.762V160.78A.734.734,0,0,0,41.6,160.017Z" transform="translate(0 -160.017)" fill="#4caf50"/>
          </g>
        </g>
        <g id="Group_203" data-name="Group 203" transform="translate(1.781 5.349)">
          <g id="Group_202" data-name="Group 202">
            <path id="Path_40" data-name="Path 40" d="M54.341,64.055,18.708,56.038a.763.763,0,0,0-.913.579l-1.782,8.017a.764.764,0,0,0,1.491.331L19.12,57.7l34.886,7.849a.72.72,0,0,0,.168.019.763.763,0,0,0,.167-1.508Z" transform="translate(-15.995 -56.019)" fill="#4caf50"/>
          </g>
        </g>
        <g id="Group_205" data-name="Group 205" transform="translate(10.045)">
          <g id="Group_204" data-name="Group 204">
            <path id="Path_41" data-name="Path 41" d="M128.108,16.949l-21.38-8.908a.766.766,0,0,0-.98.364l-1.782,3.563a.766.766,0,1,0,1.348.729c.008-.015.015-.03.022-.045v0L106.8,9.729l20.72,8.633a.765.765,0,1,0,.59-1.413Z" transform="translate(-103.875 -7.982)" fill="#4caf50"/>
          </g>
        </g>
        <g id="Group_207" data-name="Group 207" transform="translate(26.107 19)">
          <g id="Group_206" data-name="Group 206">
            <path id="Path_42" data-name="Path 42" d="M263.834,192.017h-7.07a.763.763,0,0,0,0,1.527h7.07a.763.763,0,0,0,0-1.527Z" transform="translate(-256 -192.017)" fill="#4caf50"/>
          </g>
        </g>
        <g id="Group_209" data-name="Group 209" transform="translate(12.874 18.456)">
          <g id="Group_208" data-name="Group 208">
            <path id="Path_43" data-name="Path 43" d="M136.3,192.473a7.839,7.839,0,1,0,7.839,7.839A7.839,7.839,0,0,0,136.3,192.473Zm0,14.253a6.414,6.414,0,1,1,6.414-6.414A6.414,6.414,0,0,1,136.3,206.726Z" transform="translate(-128.456 -192.473)" fill="#4caf50"/>
          </g>
        </g>
        <g id="Group_211" data-name="Group 211" transform="translate(29.96 19.394)">
          <g id="Group_210" data-name="Group 210">
            <path id="Path_44" data-name="Path 44" d="M312.655,214.873c-4.721,0-9.8,1.115-9.8,3.563v21.38c0,2.448,5.078,3.563,9.8,3.563s9.8-1.115,9.8-3.563v-21.38C322.454,215.988,317.376,214.873,312.655,214.873Zm8.017,24.93c-.135.494-2.806,1.8-8.017,1.8s-7.883-1.3-8.017-1.782v-1.4a23.644,23.644,0,0,0,16.035,0Zm0-3.563c-.135.494-2.806,1.8-8.017,1.8s-7.883-1.3-8.017-1.782v-1.4a23.644,23.644,0,0,0,16.035,0Zm0-3.563c-.135.494-2.806,1.8-8.017,1.8s-7.883-1.3-8.017-1.782v-1.4a23.644,23.644,0,0,0,16.035,0Zm0-3.563c-.135.494-2.806,1.8-8.017,1.8s-7.883-1.3-8.017-1.782v-1.4a23.643,23.643,0,0,0,16.035,0Zm0-3.563c-.135.494-2.806,1.8-8.017,1.8s-7.883-1.3-8.017-1.782v-1.4a23.644,23.644,0,0,0,16.035,0Zm0-3.563c-.135.494-2.806,1.8-8.017,1.8s-7.883-1.3-8.017-1.782v-1.4a23.644,23.644,0,0,0,16.035,0Zm-8.017-1.768c-5.2,0-7.874-1.3-8.017-1.766v-.005c.143-.5,2.814-1.792,8.017-1.792,5.167,0,7.839,1.277,8.017,1.782C320.494,218.941,317.822,220.218,312.655,220.218Z" transform="translate(-302.856 -214.873)" fill="#4caf50"/>
          </g>
        </g>
        <g id="Group_213" data-name="Group 213" transform="translate(3.562 18.405)">
          <g id="Group_212" data-name="Group 212">
            <path id="Path_45" data-name="Path 45" d="M43.446,206.269H36.712l-3.193-3.492v-5.79l3.526-3.443h6.4a.763.763,0,1,0,0-1.527H36.736a.764.764,0,0,0-.534.216l-3.979,3.881a.957.957,0,0,0-.23.624v6.336a.764.764,0,0,0,.2.515l3.619,3.959a.763.763,0,0,0,.564.249h7.071a.763.763,0,1,0,0-1.527Z" transform="translate(-31.992 -192.017)" fill="#4caf50"/>
          </g>
        </g>
        <g id="Group_215" data-name="Group 215" transform="translate(17.943 22.334)">
          <g id="Group_214" data-name="Group 214">
            <path id="Path_46" data-name="Path 46" d="M177.974,229.991h-.891c-.277,0-.445-.155-.445-.223s.168-.223.445-.223h2.227a.891.891,0,0,0,0-1.782h-.891a.891.891,0,0,0-1.782,0v.04a2.074,2.074,0,0,0-1.782,1.96,2.127,2.127,0,0,0,2.227,2.009h.891c.277,0,.445.155.445.223s-.168.223-.445.223h-2.227a.891.891,0,0,0,0,1.782h.891a.891.891,0,1,0,1.782,0v-.04A2.074,2.074,0,0,0,180.2,232,2.127,2.127,0,0,0,177.974,229.991Z" transform="translate(-174.856 -226.873)" fill="#4caf50"/>
          </g>
        </g>
      </g>
      <g id="money-2" data-name="money" transform="translate(-0.676 8)">
        <g id="Group_201-2" data-name="Group 201" transform="translate(0 14.775)">
          <g id="Group_200-2" data-name="Group 200" transform="translate(0)">
            <path id="Path_39-2" data-name="Path 39" d="M41.6,160.017H.7a.733.733,0,0,0-.7.762V182.16a.734.734,0,0,0,.7.763H28.514a.766.766,0,0,0,0-1.527H1.4V161.544H40.9v1.909a.734.734,0,0,0,.7.763h0a.733.733,0,0,0,.7-.762V160.78A.734.734,0,0,0,41.6,160.017Z" transform="translate(0 -160.017)" fill="#616161"/>
          </g>
        </g>
        <g id="Group_203-2" data-name="Group 203" transform="translate(1.781 5.349)">
          <g id="Group_202-2" data-name="Group 202">
            <path id="Path_40-2" data-name="Path 40" d="M54.341,64.055,18.708,56.038a.763.763,0,0,0-.913.579l-1.782,8.017a.764.764,0,0,0,1.491.331L19.12,57.7l34.886,7.849a.72.72,0,0,0,.168.019.763.763,0,0,0,.167-1.508Z" transform="translate(-15.995 -56.019)" fill="#616161"/>
          </g>
        </g>
        <g id="Group_205-2" data-name="Group 205" transform="translate(10.045)">
          <g id="Group_204-2" data-name="Group 204">
            <path id="Path_41-2" data-name="Path 41" d="M128.108,16.949l-21.38-8.908a.766.766,0,0,0-.98.364l-1.782,3.563a.766.766,0,1,0,1.348.729c.008-.015.015-.03.022-.045v0L106.8,9.729l20.72,8.633a.765.765,0,1,0,.59-1.413Z" transform="translate(-103.875 -7.982)" fill="#616161"/>
          </g>
        </g>
        <g id="Group_207-2" data-name="Group 207" transform="translate(26.107 19)">
          <g id="Group_206-2" data-name="Group 206">
            <path id="Path_42-2" data-name="Path 42" d="M263.834,192.017h-7.07a.763.763,0,0,0,0,1.527h7.07a.763.763,0,0,0,0-1.527Z" transform="translate(-256 -192.017)" fill="#616161"/>
          </g>
        </g>
        <g id="Group_209-2" data-name="Group 209" transform="translate(12.874 18.456)">
          <g id="Group_208-2" data-name="Group 208">
            <path id="Path_43-2" data-name="Path 43" d="M136.3,192.473a7.839,7.839,0,1,0,7.839,7.839A7.839,7.839,0,0,0,136.3,192.473Zm0,14.253a6.414,6.414,0,1,1,6.414-6.414A6.414,6.414,0,0,1,136.3,206.726Z" transform="translate(-128.456 -192.473)" fill="#616161"/>
          </g>
        </g>
        <g id="Group_211-2" data-name="Group 211" transform="translate(29.96 19.394)">
          <g id="Group_210-2" data-name="Group 210">
            <path id="Path_44-2" data-name="Path 44" d="M312.655,214.873c-4.721,0-9.8,1.115-9.8,3.563v21.38c0,2.448,5.078,3.563,9.8,3.563s9.8-1.115,9.8-3.563v-21.38C322.454,215.988,317.376,214.873,312.655,214.873Zm8.017,24.93c-.135.494-2.806,1.8-8.017,1.8s-7.883-1.3-8.017-1.782v-1.4a23.644,23.644,0,0,0,16.035,0Zm0-3.563c-.135.494-2.806,1.8-8.017,1.8s-7.883-1.3-8.017-1.782v-1.4a23.644,23.644,0,0,0,16.035,0Zm0-3.563c-.135.494-2.806,1.8-8.017,1.8s-7.883-1.3-8.017-1.782v-1.4a23.644,23.644,0,0,0,16.035,0Zm0-3.563c-.135.494-2.806,1.8-8.017,1.8s-7.883-1.3-8.017-1.782v-1.4a23.643,23.643,0,0,0,16.035,0Zm0-3.563c-.135.494-2.806,1.8-8.017,1.8s-7.883-1.3-8.017-1.782v-1.4a23.644,23.644,0,0,0,16.035,0Zm0-3.563c-.135.494-2.806,1.8-8.017,1.8s-7.883-1.3-8.017-1.782v-1.4a23.644,23.644,0,0,0,16.035,0Zm-8.017-1.768c-5.2,0-7.874-1.3-8.017-1.766v-.005c.143-.5,2.814-1.792,8.017-1.792,5.167,0,7.839,1.277,8.017,1.782C320.494,218.941,317.822,220.218,312.655,220.218Z" transform="translate(-302.856 -214.873)" fill="#616161"/>
          </g>
        </g>
        <g id="Group_213-2" data-name="Group 213" transform="translate(3.562 18.405)">
          <g id="Group_212-2" data-name="Group 212">
            <path id="Path_45-2" data-name="Path 45" d="M43.446,206.269H36.712l-3.193-3.492v-5.79l3.526-3.443h6.4a.763.763,0,1,0,0-1.527H36.736a.764.764,0,0,0-.534.216l-3.979,3.881a.957.957,0,0,0-.23.624v6.336a.764.764,0,0,0,.2.515l3.619,3.959a.763.763,0,0,0,.564.249h7.071a.763.763,0,1,0,0-1.527Z" transform="translate(-31.992 -192.017)" fill="#616161"/>
          </g>
        </g>
        <g id="Group_215-2" data-name="Group 215" transform="translate(17.943 22.334)">
          <g id="Group_214-2" data-name="Group 214">
            <path id="Path_46-2" data-name="Path 46" d="M177.974,229.991h-.891c-.277,0-.445-.155-.445-.223s.168-.223.445-.223h2.227a.891.891,0,0,0,0-1.782h-.891a.891.891,0,0,0-1.782,0v.04a2.074,2.074,0,0,0-1.782,1.96,2.127,2.127,0,0,0,2.227,2.009h.891c.277,0,.445.155.445.223s-.168.223-.445.223h-2.227a.891.891,0,0,0,0,1.782h.891a.891.891,0,1,0,1.782,0v-.04A2.074,2.074,0,0,0,180.2,232,2.127,2.127,0,0,0,177.974,229.991Z" transform="translate(-174.856 -226.873)" fill="#616161"/>
          </g>
        </g>
      </g>
    </g>
    <g id="Group_101" data-name="Group 101">
      <g id="Path_27" data-name="Path 27" transform="translate(2 2)" fill="none" opacity="0.25">
        <path d="M43.5,0A43.5,43.5,0,1,1,0,43.5,43.5,43.5,0,0,1,43.5,0Z" stroke="none"/>
        <path d="M 43.5 2 C 37.89664840698242 2 32.46197509765625 3.096977233886719 27.34693908691406 5.260452270507812 C 22.40538787841797 7.350547790527344 17.96700286865234 10.3431396484375 14.15505981445312 14.15505981445312 C 10.3431396484375 17.96700286865234 7.350547790527344 22.40538787841797 5.260452270507812 27.34693908691406 C 3.096977233886719 32.46197509765625 2 37.89664840698242 2 43.5 C 2 49.10335159301758 3.096977233886719 54.53802490234375 5.260452270507812 59.65306091308594 C 7.350547790527344 64.59461212158203 10.3431396484375 69.03300476074219 14.15505981445312 72.84494018554688 C 17.96700286865234 76.6568603515625 22.40538787841797 79.64945220947266 27.34693908691406 81.73954772949219 C 32.46197509765625 83.90302276611328 37.89664840698242 85 43.5 85 C 49.10335159301758 85 54.53802490234375 83.90302276611328 59.65306091308594 81.73954772949219 C 64.59461212158203 79.64945220947266 69.03300476074219 76.6568603515625 72.84494018554688 72.84494018554688 C 76.6568603515625 69.03300476074219 79.64945220947266 64.59461212158203 81.73954772949219 59.65306091308594 C 83.90302276611328 54.53802490234375 85 49.10335159301758 85 43.5 C 85 37.89664840698242 83.90302276611328 32.46197509765625 81.73954772949219 27.34693908691406 C 79.64945220947266 22.40538787841797 76.6568603515625 17.96700286865234 72.84494018554688 14.15505981445312 C 69.03300476074219 10.3431396484375 64.59461212158203 7.350547790527344 59.65306091308594 5.260452270507812 C 54.53802490234375 3.096977233886719 49.10335159301758 2 43.5 2 M 43.5 0 C 67.52438354492188 0 87 19.47560882568359 87 43.5 C 87 67.52438354492188 67.52438354492188 87 43.5 87 C 19.47560882568359 87 0 67.52438354492188 0 43.5 C 0 19.47560882568359 19.47560882568359 0 43.5 0 Z" stroke="none" fill="#4caf50"/>
      </g>
      <g id="Ellipse_1" data-name="Ellipse 1" fill="none" stroke="#616161" stroke-width="2">
        <circle cx="43.5" cy="43.5" r="43.5" stroke="none"/>
        <circle cx="43.5" cy="43.5" r="42.5" fill="none"/>
      </g>
    </g>
  </g>
</svg>
