<svg xmlns="http://www.w3.org/2000/svg" width="148" height="148" viewBox="0 0 148 148">
  <g id="Group_104" data-name="Group 104" transform="translate(-851 -902)">
    <g id="Group_123" data-name="Group 123" transform="translate(881 932)">
      <g id="sir" transform="translate(2.268 2.268)" opacity="0.25">
        <g id="Group_106" data-name="Group 106">
          <g id="Group_105" data-name="Group 105">
            <path id="Path_7" data-name="Path 7" d="M80.017,29.557H67.157V7.389A7.278,7.278,0,0,0,60.012,0H25.72a7.278,7.278,0,0,0-7.144,7.389V29.557H5.715a5.915,5.915,0,0,0,0,11.823h74.3a5.915,5.915,0,0,0,0-11.823ZM21.433,7.389A4.367,4.367,0,0,1,25.72,2.956H60.012A4.367,4.367,0,0,1,64.3,7.389V17.734H21.433Zm0,13.3H64.3v8.867H21.433ZM80.017,38.424H5.715a2.957,2.957,0,0,1,0-5.911h74.3a2.957,2.957,0,0,1,0,5.911Z" fill="#f44336"/>
          </g>
        </g>
        <g id="Group_108" data-name="Group 108" transform="translate(16.933 43.743)">
          <g id="Group_107" data-name="Group 107">
            <path id="Path_8" data-name="Path 8" d="M107.823,248a11.823,11.823,0,1,0,11.823,11.823A11.837,11.837,0,0,0,107.823,248Zm0,20.69a8.867,8.867,0,1,1,8.867-8.867A8.876,8.876,0,0,1,107.823,268.69Z" transform="translate(-96 -248)" fill="#f44336"/>
          </g>
        </g>
        <g id="Group_110" data-name="Group 110" transform="translate(4.434 53.219)">
          <g id="Group_109" data-name="Group 109">
            <path id="Path_9" data-name="Path 9" d="M31.389,304A7.4,7.4,0,0,0,24,311.389v23.646h2.956V311.389a4.439,4.439,0,0,1,4.434-4.434H37.3V304Z" transform="translate(-24 -304)" fill="#f44336"/>
          </g>
        </g>
        <g id="Group_112" data-name="Group 112" transform="translate(42.874 67.631)">
          <g id="Group_111" data-name="Group 111">
            <path id="Path_10" data-name="Path 10" d="M278.736,390.682a1.475,1.475,0,0,0-1.837-.646,12.2,12.2,0,0,1-12.132-1.8l-5.938-4.751a6.732,6.732,0,0,0-10.524,2.934,5.441,5.441,0,0,0,.151,3.973,15.794,15.794,0,0,0,24.058,6.563l5.821-4.367A1.476,1.476,0,0,0,278.736,390.682Zm-8,3.909a12.839,12.839,0,0,1-19.557-5.335,2.5,2.5,0,0,1-.1-1.815,3.777,3.777,0,0,1,5.9-1.646l5.94,4.751a15.154,15.154,0,0,0,8.814,3.3Z" transform="translate(-248 -382.014)" fill="#f44336"/>
          </g>
        </g>
        <g id="Group_114" data-name="Group 114" transform="translate(11.822 67.631)">
          <g id="Group_113" data-name="Group 113">
            <path id="Path_11" data-name="Path 11" d="M94.616,386.421a6.73,6.73,0,0,0-10.522-2.934l-5.94,4.751a12.2,12.2,0,0,1-12.132,1.8,1.478,1.478,0,0,0-1.436,2.554l5.821,4.367a15.8,15.8,0,0,0,24.06-6.565A5.44,5.44,0,0,0,94.616,386.421Zm-2.877,2.836a12.839,12.839,0,0,1-19.557,5.335l-.995-.746a15.15,15.15,0,0,0,8.814-3.3l5.94-4.751a3.777,3.777,0,0,1,5.9,1.645A2.5,2.5,0,0,1,91.739,389.257Z" transform="translate(-63.995 -382.015)" fill="#f44336"/>
          </g>
        </g>
        <g id="Group_116" data-name="Group 116" transform="translate(58.591 22.998)">
          <g id="Group_115" data-name="Group 115" transform="translate(0 0)">
            <rect id="Rectangle_10" data-name="Rectangle 10" width="2.835" height="2.835" fill="#f44336"/>
          </g>
        </g>
        <g id="Group_118" data-name="Group 118" transform="translate(53.115 22.998)">
          <g id="Group_117" data-name="Group 117" transform="translate(0 0)">
            <rect id="Rectangle_11" data-name="Rectangle 11" width="2.835" height="2.835" fill="#f44336"/>
          </g>
        </g>
        <g id="Group_120" data-name="Group 120" transform="translate(47.092 22.998)">
          <g id="Group_119" data-name="Group 119" transform="translate(0 0)">
            <rect id="Rectangle_12" data-name="Rectangle 12" width="2.835" height="2.835" fill="#f44336"/>
          </g>
        </g>
        <g id="Group_122" data-name="Group 122" transform="translate(46.688 46.864)">
          <g id="Group_121" data-name="Group 121">
            <path id="Path_12" data-name="Path 12" d="M283.781,267.344l-1.138-2.728-17.734,7.389a1.478,1.478,0,0,0,0,2.728l17.734,7.389,1.138-2.728-14.461-6.025Z" transform="translate(-264 -264.616)" fill="#f44336"/>
          </g>
        </g>
      </g>
      <g id="sir-2" data-name="sir">
        <g id="Group_106-2" data-name="Group 106">
          <g id="Group_105-2" data-name="Group 105">
            <path id="Path_7-2" data-name="Path 7" d="M80.017,29.557H67.157V7.389A7.278,7.278,0,0,0,60.012,0H25.72a7.278,7.278,0,0,0-7.144,7.389V29.557H5.715a5.915,5.915,0,0,0,0,11.823h74.3a5.915,5.915,0,0,0,0-11.823ZM21.433,7.389A4.367,4.367,0,0,1,25.72,2.956H60.012A4.367,4.367,0,0,1,64.3,7.389V17.734H21.433Zm0,13.3H64.3v8.867H21.433ZM80.017,38.424H5.715a2.957,2.957,0,0,1,0-5.911h74.3a2.957,2.957,0,0,1,0,5.911Z" fill="#616161"/>
          </g>
        </g>
        <g id="Group_108-2" data-name="Group 108" transform="translate(16.933 43.743)">
          <g id="Group_107-2" data-name="Group 107">
            <path id="Path_8-2" data-name="Path 8" d="M107.823,248a11.823,11.823,0,1,0,11.823,11.823A11.837,11.837,0,0,0,107.823,248Zm0,20.69a8.867,8.867,0,1,1,8.867-8.867A8.876,8.876,0,0,1,107.823,268.69Z" transform="translate(-96 -248)" fill="#616161"/>
          </g>
        </g>
        <g id="Group_110-2" data-name="Group 110" transform="translate(4.434 53.219)">
          <g id="Group_109-2" data-name="Group 109">
            <path id="Path_9-2" data-name="Path 9" d="M31.389,304A7.4,7.4,0,0,0,24,311.389v23.646h2.956V311.389a4.439,4.439,0,0,1,4.434-4.434H37.3V304Z" transform="translate(-24 -304)" fill="#616161"/>
          </g>
        </g>
        <g id="Group_112-2" data-name="Group 112" transform="translate(42.874 67.631)">
          <g id="Group_111-2" data-name="Group 111">
            <path id="Path_10-2" data-name="Path 10" d="M278.736,390.682a1.475,1.475,0,0,0-1.837-.646,12.2,12.2,0,0,1-12.132-1.8l-5.938-4.751a6.732,6.732,0,0,0-10.524,2.934,5.441,5.441,0,0,0,.151,3.973,15.794,15.794,0,0,0,24.058,6.563l5.821-4.367A1.476,1.476,0,0,0,278.736,390.682Zm-8,3.909a12.839,12.839,0,0,1-19.557-5.335,2.5,2.5,0,0,1-.1-1.815,3.777,3.777,0,0,1,5.9-1.646l5.94,4.751a15.154,15.154,0,0,0,8.814,3.3Z" transform="translate(-248 -382.014)" fill="#616161"/>
          </g>
        </g>
        <g id="Group_114-2" data-name="Group 114" transform="translate(11.822 67.631)">
          <g id="Group_113-2" data-name="Group 113">
            <path id="Path_11-2" data-name="Path 11" d="M94.616,386.421a6.73,6.73,0,0,0-10.522-2.934l-5.94,4.751a12.2,12.2,0,0,1-12.132,1.8,1.478,1.478,0,0,0-1.436,2.554l5.821,4.367a15.8,15.8,0,0,0,24.06-6.565A5.44,5.44,0,0,0,94.616,386.421Zm-2.877,2.836a12.839,12.839,0,0,1-19.557,5.335l-.995-.746a15.15,15.15,0,0,0,8.814-3.3l5.94-4.751a3.777,3.777,0,0,1,5.9,1.645A2.5,2.5,0,0,1,91.739,389.257Z" transform="translate(-63.995 -382.015)" fill="#616161"/>
          </g>
        </g>
        <g id="Group_116-2" data-name="Group 116" transform="translate(58.591 22.998)">
          <g id="Group_115-2" data-name="Group 115" transform="translate(0 0)">
            <rect id="Rectangle_10-2" data-name="Rectangle 10" width="2.835" height="2.835" fill="#616161"/>
          </g>
        </g>
        <g id="Group_118-2" data-name="Group 118" transform="translate(53.115 22.998)">
          <g id="Group_117-2" data-name="Group 117" transform="translate(0 0)">
            <rect id="Rectangle_11-2" data-name="Rectangle 11" width="2.835" height="2.835" fill="#616161"/>
          </g>
        </g>
        <g id="Group_120-2" data-name="Group 120" transform="translate(47.092 22.998)">
          <g id="Group_119-2" data-name="Group 119" transform="translate(0 0)">
            <rect id="Rectangle_12-2" data-name="Rectangle 12" width="2.835" height="2.835" fill="#616161"/>
          </g>
        </g>
        <g id="Group_122-2" data-name="Group 122" transform="translate(46.688 46.864)">
          <g id="Group_121-2" data-name="Group 121">
            <path id="Path_12-2" data-name="Path 12" d="M283.781,267.344l-1.138-2.728-17.734,7.389a1.478,1.478,0,0,0,0,2.728l17.734,7.389,1.138-2.728-14.461-6.025Z" transform="translate(-264 -264.616)" fill="#616161"/>
          </g>
        </g>
      </g>
    </g>
    <g id="Group_101" data-name="Group 101" transform="translate(851 902)">
      <g id="Path_27" data-name="Path 27" transform="translate(4 4)" fill="none" opacity="0.25">
        <path d="M72,0A72,72,0,1,1,0,72,72,72,0,0,1,72,0Z" stroke="none"/>
        <path d="M 72 4 C 62.81830596923828 4 53.91336822509766 5.797348022460938 45.53256225585938 9.342132568359375 C 41.50412750244141 11.0460205078125 37.61841583251953 13.1551513671875 33.98334503173828 15.6109619140625 C 30.38175964355469 18.04412841796875 26.994873046875 20.83860778808594 23.91674041748047 23.91674041748047 C 20.83860778808594 26.994873046875 18.04412841796875 30.38175964355469 15.6109619140625 33.98334503173828 C 13.1551513671875 37.61841583251953 11.0460205078125 41.50412750244141 9.342132568359375 45.53256225585938 C 5.797348022460938 53.91336822509766 4 62.81830596923828 4 72 C 4 81.18169403076172 5.797348022460938 90.08663177490234 9.342132568359375 98.46743774414062 C 11.0460205078125 102.4958648681641 13.1551513671875 106.381591796875 15.6109619140625 110.0166473388672 C 18.04412841796875 113.6182403564453 20.83860778808594 117.005126953125 23.91674041748047 120.0832595825195 C 26.994873046875 123.1613922119141 30.38175964355469 125.9558715820312 33.98334503173828 128.3890380859375 C 37.61841583251953 130.8448486328125 41.50412750244141 132.9539794921875 45.53256225585938 134.6578674316406 C 53.91336822509766 138.2026519775391 62.81830596923828 140 72 140 C 81.18169403076172 140 90.08663177490234 138.2026519775391 98.46743774414062 134.6578674316406 C 102.4958648681641 132.9539794921875 106.381591796875 130.8448486328125 110.0166473388672 128.3890380859375 C 113.6182403564453 125.9558715820312 117.005126953125 123.1613922119141 120.0832595825195 120.0832595825195 C 123.1613922119141 117.005126953125 125.9558715820312 113.6182403564453 128.3890380859375 110.0166473388672 C 130.8448486328125 106.381591796875 132.9539794921875 102.4958648681641 134.6578674316406 98.46743774414062 C 138.2026519775391 90.08663177490234 140 81.18169403076172 140 72 C 140 62.81830596923828 138.2026519775391 53.91336822509766 134.6578674316406 45.53256225585938 C 132.9539794921875 41.50412750244141 130.8448486328125 37.61841583251953 128.3890380859375 33.98334503173828 C 125.9558715820312 30.38175964355469 123.1613922119141 26.994873046875 120.0832595825195 23.91674041748047 C 117.005126953125 20.83860778808594 113.6182403564453 18.04412841796875 110.0166473388672 15.6109619140625 C 106.381591796875 13.1551513671875 102.4958648681641 11.0460205078125 98.46743774414062 9.342132568359375 C 90.08663177490234 5.797348022460938 81.18169403076172 4 72 4 M 72 0 C 111.7644958496094 0 144 32.23549652099609 144 72 C 144 111.7644958496094 111.7644958496094 144 72 144 C 32.23549652099609 144 0 111.7644958496094 0 72 C 0 32.23549652099609 32.23549652099609 0 72 0 Z" stroke="none" fill="#f44336"/>
      </g>
      <g id="Ellipse_1" data-name="Ellipse 1" fill="none" stroke="#616161" stroke-width="4">
        <circle cx="72" cy="72" r="72" stroke="none"/>
        <circle cx="72" cy="72" r="70" fill="none"/>
      </g>
    </g>
  </g>
</svg>
