<svg xmlns="http://www.w3.org/2000/svg" width="148" height="148" viewBox="0 0 148 148">
  <g id="Group_100" data-name="Group 100" transform="translate(-851 -902)">
    <g id="Group_99" data-name="Group 99" transform="translate(882 933)">
      <g id="idea" transform="translate(4 4)" opacity="0.25">
        <g id="Group_84" data-name="Group 84" transform="translate(39.808)">
          <g id="Group_83" data-name="Group 83">
            <rect id="Rectangle_3" data-name="Rectangle 3" width="4.332" height="12.995" fill="#4caf50"/>
          </g>
        </g>
        <g id="Group_86" data-name="Group 86" transform="translate(58.504 11.53)">
          <g id="Group_85" data-name="Group 85" transform="translate(0 0)">
            <rect id="Rectangle_4" data-name="Rectangle 4" width="15.395" height="4.355" transform="translate(0 10.886) rotate(-45)" fill="#4caf50"/>
          </g>
        </g>
        <g id="Group_88" data-name="Group 88" transform="translate(11.525 11.525)">
          <g id="Group_87" data-name="Group 87">
            <rect id="Rectangle_5" data-name="Rectangle 5" width="4.355" height="15.395" transform="translate(0 3.079) rotate(-45)" fill="#4caf50"/>
          </g>
        </g>
        <g id="Group_90" data-name="Group 90" transform="translate(11.523 58.499)">
          <g id="Group_89" data-name="Group 89" transform="translate(0 0)">
            <rect id="Rectangle_6" data-name="Rectangle 6" width="15.395" height="4.355" transform="translate(0 10.886) rotate(-45)" fill="#4caf50"/>
          </g>
        </g>
        <g id="Group_92" data-name="Group 92" transform="translate(0 17.42)">
          <g id="Group_91" data-name="Group 91">
            <path id="Path_2" data-name="Path 2" d="M78.819,88.663a9.454,9.454,0,0,0,.981-4.177c0-5.648-5.025-10.243-11.2-10.243a12.121,12.121,0,0,0-2.141.191A11.174,11.174,0,0,0,56,67.841a12.025,12.025,0,0,0-4.567.9,11.759,11.759,0,0,0-18.866,0,12.025,12.025,0,0,0-4.567-.9,11.174,11.174,0,0,0-10.459,6.593,12.121,12.121,0,0,0-2.141-.191c-6.175,0-11.2,4.6-11.2,10.243a9.454,9.454,0,0,0,.981,4.177A10.107,10.107,0,0,0,0,97.29c0,5.648,5.025,10.243,11.2,10.243H32.691a4.128,4.128,0,0,0-.491,1.921,4.287,4.287,0,0,0,1.481,3.2,4.2,4.2,0,0,0,0,6.4,4.287,4.287,0,0,0-1.481,3.2,4.645,4.645,0,0,0,4.382,4.434,5.719,5.719,0,0,0,10.836,0,4.645,4.645,0,0,0,4.382-4.434,4.287,4.287,0,0,0-1.481-3.2,4.2,4.2,0,0,0,0-6.4,4.287,4.287,0,0,0,1.481-3.2,4.128,4.128,0,0,0-.491-1.921H58.87c.7,6.461,6.682,11.523,13.93,11.523a1.344,1.344,0,0,0,1.4-1.28V107.453c5.516-.633,9.8-4.95,9.8-10.164A10.107,10.107,0,0,0,78.819,88.663ZM42,128.019a2.845,2.845,0,0,1-2.411-1.28h4.822A2.845,2.845,0,0,1,42,128.019Zm4.9-3.841H37.1a1.928,1.928,0,1,1,0-3.841h9.8a1.928,1.928,0,1,1,0,3.841Zm0-6.4H37.1a1.928,1.928,0,1,1,0-3.841h9.8a1.928,1.928,0,1,1,0,3.841Zm0-6.4H37.1a1.928,1.928,0,1,1,0-3.841h9.8a1.928,1.928,0,1,1,0,3.841ZM36.12,91.244a1.491,1.491,0,0,0,1.96,0,7.312,7.312,0,0,0,2.52-5.477,7.023,7.023,0,0,0-.087-1.046c-.013-.082-.025-.163-.039-.243a7.206,7.206,0,0,0-.253-1c-.008-.026-.021-.05-.029-.076a7.261,7.261,0,0,0-.389-.89c-.038-.073-.074-.145-.113-.216a7.744,7.744,0,0,0-.563-.872c-.008-.012-.014-.024-.024-.036a6.148,6.148,0,0,1,5.8,0c-.008.012-.014.024-.024.036a7.373,7.373,0,0,0-.563.872c-.041.072-.077.143-.113.216a7.261,7.261,0,0,0-.389.89c-.008.026-.021.05-.029.076a7.161,7.161,0,0,0-.253,1c-.015.081-.028.161-.039.243a6.507,6.507,0,0,0-.091,1.046,7.312,7.312,0,0,0,2.52,5.477,1.491,1.491,0,0,0,1.96,0,7.312,7.312,0,0,0,2.52-5.477,7.023,7.023,0,0,0-.087-1.046c-.013-.082-.025-.163-.039-.243a7.2,7.2,0,0,0-.253-1c-.008-.026-.021-.05-.029-.076a7.261,7.261,0,0,0-.389-.89c-.038-.073-.074-.145-.113-.216a7.745,7.745,0,0,0-.563-.872c-.008-.012-.014-.024-.024-.036a6.118,6.118,0,0,1,6.819.727A4.89,4.89,0,0,1,57.4,85.766v3.156l-11.977,7.3A1.257,1.257,0,0,0,44.8,97.29v7.682H39.2V97.29a1.257,1.257,0,0,0-.623-1.065L26.6,88.924V85.766a5.382,5.382,0,0,1,5.6-5.122,5.927,5.927,0,0,1,2.9.744c-.008.012-.014.024-.022.036a7.372,7.372,0,0,0-.563.872c-.041.072-.077.143-.113.216a7.261,7.261,0,0,0-.389.89c-.008.026-.021.05-.029.076a7.161,7.161,0,0,0-.253,1c-.015.081-.028.161-.039.243a6.641,6.641,0,0,0-.09,1.045A7.312,7.312,0,0,0,36.12,91.244Zm.28-5.477a4.75,4.75,0,0,1,.1-.905c.013-.067.027-.134.042-.2a4.788,4.788,0,0,1,.283-.84c.017-.038.041-.074.059-.111.062-.127.146-.245.218-.367.073.123.157.241.218.367.018.036.041.072.059.11a4.859,4.859,0,0,1,.283.84c.015.067.029.133.042.2a4.23,4.23,0,0,1,0,1.81c-.013.068-.027.134-.042.2a4.787,4.787,0,0,1-.283.84c-.017.037-.039.073-.057.11-.062.128-.146.246-.218.367-.073-.123-.157-.241-.218-.367-.018-.037-.041-.074-.059-.111a4.859,4.859,0,0,1-.283-.84q-.023-.1-.042-.2A4.641,4.641,0,0,1,36.4,85.766Zm9.8,0a4.751,4.751,0,0,1,.1-.905c.013-.067.027-.134.042-.2a4.787,4.787,0,0,1,.283-.84c.017-.038.041-.074.059-.111.062-.127.146-.245.218-.367.073.123.157.241.218.367.018.036.041.072.059.11a4.858,4.858,0,0,1,.283.84c.015.067.029.133.042.2a4.229,4.229,0,0,1,0,1.81c-.013.068-.027.134-.042.2a4.786,4.786,0,0,1-.283.84c-.017.037-.039.073-.057.11-.062.128-.146.246-.218.367-.073-.123-.157-.241-.218-.367-.018-.037-.041-.074-.059-.111a4.858,4.858,0,0,1-.283-.84q-.023-.1-.042-.2A4.64,4.64,0,0,1,46.2,85.766Zm26.6,19.206a1.344,1.344,0,0,0-1.4,1.28v10.164c-5.516-.632-9.8-4.95-9.8-10.164a1.344,1.344,0,0,0-1.4-1.28H47.6v-7l11.977-7.3a1.257,1.257,0,0,0,.623-1.065V85.766a7.312,7.312,0,0,0-2.52-5.477l-.98.913.98-.914a8.953,8.953,0,0,0-10.78-.745,8.961,8.961,0,0,0-9.8,0,8.853,8.853,0,0,0-4.9-1.458c-4.633,0-8.4,3.446-8.4,7.682v3.842a1.257,1.257,0,0,0,.623,1.065l11.977,7.3v7H11.2c-4.633,0-8.4-3.446-8.4-7.682a7.7,7.7,0,0,1,4.854-6.955,1.323,1.323,0,0,0,.748-.793,1.191,1.191,0,0,0-.148-1.04A7.177,7.177,0,0,1,7,84.486c0-4.237,3.767-7.682,8.4-7.682a9.111,9.111,0,0,1,2.642.394,1.508,1.508,0,0,0,1.12-.1,1.3,1.3,0,0,0,.682-.819A8.254,8.254,0,0,1,28,70.4a8.963,8.963,0,0,1,4.393,1.145,1.508,1.508,0,0,0,1.137.136A1.374,1.374,0,0,0,34.4,71,8.734,8.734,0,0,1,49.6,71a1.378,1.378,0,0,0,.867.685,1.51,1.51,0,0,0,1.137-.136A8.941,8.941,0,0,1,56,70.4a8.255,8.255,0,0,1,8.156,5.881,1.3,1.3,0,0,0,.682.819,1.5,1.5,0,0,0,1.12.1A9.111,9.111,0,0,1,68.6,76.8c4.633,0,8.4,3.445,8.4,7.682A7.177,7.177,0,0,1,75.747,88.5a1.19,1.19,0,0,0-.148,1.04,1.32,1.32,0,0,0,.748.793A7.7,7.7,0,0,1,81.2,97.29C81.2,101.527,77.433,104.972,72.8,104.972Z" transform="translate(0 -64)" fill="#4caf50"/>
          </g>
        </g>
        <g id="Group_94" data-name="Group 94" transform="translate(24.588 60.493)">
          <g id="Group_93" data-name="Group 93">
            <rect id="Rectangle_7" data-name="Rectangle 7" width="4.332" height="4.332" fill="#4caf50"/>
          </g>
        </g>
        <g id="Group_96" data-name="Group 96" transform="translate(19.124 60.493)">
          <g id="Group_95" data-name="Group 95">
            <rect id="Rectangle_8" data-name="Rectangle 8" width="4.332" height="4.332" fill="#4caf50"/>
          </g>
        </g>
        <g id="Group_98" data-name="Group 98" transform="translate(15.072 60.493)">
          <g id="Group_97" data-name="Group 97">
            <rect id="Rectangle_9" data-name="Rectangle 9" width="4.332" height="4.332" fill="#4caf50"/>
          </g>
        </g>
      </g>
      <g id="idea-2" data-name="idea">
        <g id="Group_84-2" data-name="Group 84" transform="translate(39.808)">
          <g id="Group_83-2" data-name="Group 83">
            <rect id="Rectangle_3-2" data-name="Rectangle 3" width="4.332" height="12.995" fill="#616161"/>
          </g>
        </g>
        <g id="Group_86-2" data-name="Group 86" transform="translate(58.504 11.53)">
          <g id="Group_85-2" data-name="Group 85" transform="translate(0 0)">
            <rect id="Rectangle_4-2" data-name="Rectangle 4" width="15.395" height="4.355" transform="translate(0 10.886) rotate(-45)" fill="#616161"/>
          </g>
        </g>
        <g id="Group_88-2" data-name="Group 88" transform="translate(11.525 11.525)">
          <g id="Group_87-2" data-name="Group 87">
            <rect id="Rectangle_5-2" data-name="Rectangle 5" width="4.355" height="15.395" transform="translate(0 3.079) rotate(-45)" fill="#616161"/>
          </g>
        </g>
        <g id="Group_90-2" data-name="Group 90" transform="translate(11.523 58.499)">
          <g id="Group_89-2" data-name="Group 89" transform="translate(0 0)">
            <rect id="Rectangle_6-2" data-name="Rectangle 6" width="15.395" height="4.355" transform="translate(0 10.886) rotate(-45)" fill="#616161"/>
          </g>
        </g>
        <g id="Group_92-2" data-name="Group 92" transform="translate(0 17.42)">
          <g id="Group_91-2" data-name="Group 91">
            <path id="Path_2-2" data-name="Path 2" d="M78.819,88.663a9.454,9.454,0,0,0,.981-4.177c0-5.648-5.025-10.243-11.2-10.243a12.121,12.121,0,0,0-2.141.191A11.174,11.174,0,0,0,56,67.841a12.025,12.025,0,0,0-4.567.9,11.759,11.759,0,0,0-18.866,0,12.025,12.025,0,0,0-4.567-.9,11.174,11.174,0,0,0-10.459,6.593,12.121,12.121,0,0,0-2.141-.191c-6.175,0-11.2,4.6-11.2,10.243a9.454,9.454,0,0,0,.981,4.177A10.107,10.107,0,0,0,0,97.29c0,5.648,5.025,10.243,11.2,10.243H32.691a4.128,4.128,0,0,0-.491,1.921,4.287,4.287,0,0,0,1.481,3.2,4.2,4.2,0,0,0,0,6.4,4.287,4.287,0,0,0-1.481,3.2,4.645,4.645,0,0,0,4.382,4.434,5.719,5.719,0,0,0,10.836,0,4.645,4.645,0,0,0,4.382-4.434,4.287,4.287,0,0,0-1.481-3.2,4.2,4.2,0,0,0,0-6.4,4.287,4.287,0,0,0,1.481-3.2,4.128,4.128,0,0,0-.491-1.921H58.87c.7,6.461,6.682,11.523,13.93,11.523a1.344,1.344,0,0,0,1.4-1.28V107.453c5.516-.633,9.8-4.95,9.8-10.164A10.107,10.107,0,0,0,78.819,88.663ZM42,128.019a2.845,2.845,0,0,1-2.411-1.28h4.822A2.845,2.845,0,0,1,42,128.019Zm4.9-3.841H37.1a1.928,1.928,0,1,1,0-3.841h9.8a1.928,1.928,0,1,1,0,3.841Zm0-6.4H37.1a1.928,1.928,0,1,1,0-3.841h9.8a1.928,1.928,0,1,1,0,3.841Zm0-6.4H37.1a1.928,1.928,0,1,1,0-3.841h9.8a1.928,1.928,0,1,1,0,3.841ZM36.12,91.244a1.491,1.491,0,0,0,1.96,0,7.312,7.312,0,0,0,2.52-5.477,7.023,7.023,0,0,0-.087-1.046c-.013-.082-.025-.163-.039-.243a7.206,7.206,0,0,0-.253-1c-.008-.026-.021-.05-.029-.076a7.261,7.261,0,0,0-.389-.89c-.038-.073-.074-.145-.113-.216a7.744,7.744,0,0,0-.563-.872c-.008-.012-.014-.024-.024-.036a6.148,6.148,0,0,1,5.8,0c-.008.012-.014.024-.024.036a7.373,7.373,0,0,0-.563.872c-.041.072-.077.143-.113.216a7.261,7.261,0,0,0-.389.89c-.008.026-.021.05-.029.076a7.161,7.161,0,0,0-.253,1c-.015.081-.028.161-.039.243a6.507,6.507,0,0,0-.091,1.046,7.312,7.312,0,0,0,2.52,5.477,1.491,1.491,0,0,0,1.96,0,7.312,7.312,0,0,0,2.52-5.477,7.023,7.023,0,0,0-.087-1.046c-.013-.082-.025-.163-.039-.243a7.2,7.2,0,0,0-.253-1c-.008-.026-.021-.05-.029-.076a7.261,7.261,0,0,0-.389-.89c-.038-.073-.074-.145-.113-.216a7.745,7.745,0,0,0-.563-.872c-.008-.012-.014-.024-.024-.036a6.118,6.118,0,0,1,6.819.727A4.89,4.89,0,0,1,57.4,85.766v3.156l-11.977,7.3A1.257,1.257,0,0,0,44.8,97.29v7.682H39.2V97.29a1.257,1.257,0,0,0-.623-1.065L26.6,88.924V85.766a5.382,5.382,0,0,1,5.6-5.122,5.927,5.927,0,0,1,2.9.744c-.008.012-.014.024-.022.036a7.372,7.372,0,0,0-.563.872c-.041.072-.077.143-.113.216a7.261,7.261,0,0,0-.389.89c-.008.026-.021.05-.029.076a7.161,7.161,0,0,0-.253,1c-.015.081-.028.161-.039.243a6.641,6.641,0,0,0-.09,1.045A7.312,7.312,0,0,0,36.12,91.244Zm.28-5.477a4.75,4.75,0,0,1,.1-.905c.013-.067.027-.134.042-.2a4.788,4.788,0,0,1,.283-.84c.017-.038.041-.074.059-.111.062-.127.146-.245.218-.367.073.123.157.241.218.367.018.036.041.072.059.11a4.859,4.859,0,0,1,.283.84c.015.067.029.133.042.2a4.23,4.23,0,0,1,0,1.81c-.013.068-.027.134-.042.2a4.787,4.787,0,0,1-.283.84c-.017.037-.039.073-.057.11-.062.128-.146.246-.218.367-.073-.123-.157-.241-.218-.367-.018-.037-.041-.074-.059-.111a4.859,4.859,0,0,1-.283-.84q-.023-.1-.042-.2A4.641,4.641,0,0,1,36.4,85.766Zm9.8,0a4.751,4.751,0,0,1,.1-.905c.013-.067.027-.134.042-.2a4.787,4.787,0,0,1,.283-.84c.017-.038.041-.074.059-.111.062-.127.146-.245.218-.367.073.123.157.241.218.367.018.036.041.072.059.11a4.858,4.858,0,0,1,.283.84c.015.067.029.133.042.2a4.229,4.229,0,0,1,0,1.81c-.013.068-.027.134-.042.2a4.786,4.786,0,0,1-.283.84c-.017.037-.039.073-.057.11-.062.128-.146.246-.218.367-.073-.123-.157-.241-.218-.367-.018-.037-.041-.074-.059-.111a4.858,4.858,0,0,1-.283-.84q-.023-.1-.042-.2A4.64,4.64,0,0,1,46.2,85.766Zm26.6,19.206a1.344,1.344,0,0,0-1.4,1.28v10.164c-5.516-.632-9.8-4.95-9.8-10.164a1.344,1.344,0,0,0-1.4-1.28H47.6v-7l11.977-7.3a1.257,1.257,0,0,0,.623-1.065V85.766a7.312,7.312,0,0,0-2.52-5.477l-.98.913.98-.914a8.953,8.953,0,0,0-10.78-.745,8.961,8.961,0,0,0-9.8,0,8.853,8.853,0,0,0-4.9-1.458c-4.633,0-8.4,3.446-8.4,7.682v3.842a1.257,1.257,0,0,0,.623,1.065l11.977,7.3v7H11.2c-4.633,0-8.4-3.446-8.4-7.682a7.7,7.7,0,0,1,4.854-6.955,1.323,1.323,0,0,0,.748-.793,1.191,1.191,0,0,0-.148-1.04A7.177,7.177,0,0,1,7,84.486c0-4.237,3.767-7.682,8.4-7.682a9.111,9.111,0,0,1,2.642.394,1.508,1.508,0,0,0,1.12-.1,1.3,1.3,0,0,0,.682-.819A8.254,8.254,0,0,1,28,70.4a8.963,8.963,0,0,1,4.393,1.145,1.508,1.508,0,0,0,1.137.136A1.374,1.374,0,0,0,34.4,71,8.734,8.734,0,0,1,49.6,71a1.378,1.378,0,0,0,.867.685,1.51,1.51,0,0,0,1.137-.136A8.941,8.941,0,0,1,56,70.4a8.255,8.255,0,0,1,8.156,5.881,1.3,1.3,0,0,0,.682.819,1.5,1.5,0,0,0,1.12.1A9.111,9.111,0,0,1,68.6,76.8c4.633,0,8.4,3.445,8.4,7.682A7.177,7.177,0,0,1,75.747,88.5a1.19,1.19,0,0,0-.148,1.04,1.32,1.32,0,0,0,.748.793A7.7,7.7,0,0,1,81.2,97.29C81.2,101.527,77.433,104.972,72.8,104.972Z" transform="translate(0 -64)" fill="#616161"/>
          </g>
        </g>
        <g id="Group_94-2" data-name="Group 94" transform="translate(24.588 60.493)">
          <g id="Group_93-2" data-name="Group 93">
            <rect id="Rectangle_7-2" data-name="Rectangle 7" width="4.332" height="4.332" fill="#616161"/>
          </g>
        </g>
        <g id="Group_96-2" data-name="Group 96" transform="translate(19.124 60.493)">
          <g id="Group_95-2" data-name="Group 95">
            <rect id="Rectangle_8-2" data-name="Rectangle 8" width="4.332" height="4.332" fill="#616161"/>
          </g>
        </g>
        <g id="Group_98-2" data-name="Group 98" transform="translate(15.072 60.493)">
          <g id="Group_97-2" data-name="Group 97">
            <rect id="Rectangle_9-2" data-name="Rectangle 9" width="4.332" height="4.332" fill="#616161"/>
          </g>
        </g>
      </g>
    </g>
    <g id="Group_101" data-name="Group 101" transform="translate(851 902)">
      <g id="Path_26" data-name="Path 26" transform="translate(4 4)" fill="none" opacity="0.25">
        <path d="M72,0A72,72,0,1,1,0,72,72,72,0,0,1,72,0Z" stroke="none"/>
        <path d="M 72 4 C 62.81830596923828 4 53.91336822509766 5.797348022460938 45.53256225585938 9.342132568359375 C 41.50412750244141 11.0460205078125 37.61841583251953 13.1551513671875 33.98334503173828 15.6109619140625 C 30.38175964355469 18.04412841796875 26.994873046875 20.83860778808594 23.91674041748047 23.91674041748047 C 20.83860778808594 26.994873046875 18.04412841796875 30.38175964355469 15.6109619140625 33.98334503173828 C 13.1551513671875 37.61841583251953 11.0460205078125 41.50412750244141 9.342132568359375 45.53256225585938 C 5.797348022460938 53.91336822509766 4 62.81830596923828 4 72 C 4 81.18169403076172 5.797348022460938 90.08663177490234 9.342132568359375 98.46743774414062 C 11.0460205078125 102.4958648681641 13.1551513671875 106.381591796875 15.6109619140625 110.0166473388672 C 18.04412841796875 113.6182403564453 20.83860778808594 117.005126953125 23.91674041748047 120.0832595825195 C 26.994873046875 123.1613922119141 30.38175964355469 125.9558715820312 33.98334503173828 128.3890380859375 C 37.61841583251953 130.8448486328125 41.50412750244141 132.9539794921875 45.53256225585938 134.6578674316406 C 53.91336822509766 138.2026519775391 62.81830596923828 140 72 140 C 81.18169403076172 140 90.08663177490234 138.2026519775391 98.46743774414062 134.6578674316406 C 102.4958648681641 132.9539794921875 106.381591796875 130.8448486328125 110.0166473388672 128.3890380859375 C 113.6182403564453 125.9558715820312 117.005126953125 123.1613922119141 120.0832595825195 120.0832595825195 C 123.1613922119141 117.005126953125 125.9558715820312 113.6182403564453 128.3890380859375 110.0166473388672 C 130.8448486328125 106.381591796875 132.9539794921875 102.4958648681641 134.6578674316406 98.46743774414062 C 138.2026519775391 90.08663177490234 140 81.18169403076172 140 72 C 140 62.81830596923828 138.2026519775391 53.91336822509766 134.6578674316406 45.53256225585938 C 132.9539794921875 41.50412750244141 130.8448486328125 37.61841583251953 128.3890380859375 33.98334503173828 C 125.9558715820312 30.38175964355469 123.1613922119141 26.994873046875 120.0832595825195 23.91674041748047 C 117.005126953125 20.83860778808594 113.6182403564453 18.04412841796875 110.0166473388672 15.6109619140625 C 106.381591796875 13.1551513671875 102.4958648681641 11.0460205078125 98.46743774414062 9.342132568359375 C 90.08663177490234 5.797348022460938 81.18169403076172 4 72 4 M 72 0 C 111.7644958496094 0 144 32.23549652099609 144 72 C 144 111.7644958496094 111.7644958496094 144 72 144 C 32.23549652099609 144 0 111.7644958496094 0 72 C 0 32.23549652099609 32.23549652099609 0 72 0 Z" stroke="none" fill="#4caf50"/>
      </g>
      <g id="Ellipse_1" data-name="Ellipse 1" fill="none" stroke="#616161" stroke-width="4">
        <circle cx="72" cy="72" r="72" stroke="none"/>
        <circle cx="72" cy="72" r="70" fill="none"/>
      </g>
    </g>
  </g>
</svg>
