<svg id="Group_104" data-name="Group 104" xmlns="http://www.w3.org/2000/svg" width="89" height="89" viewBox="0 0 89 89">
  <g id="Group_123" data-name="Group 123" transform="translate(19 21)">
    <g id="speech-bubble" transform="translate(2 2)" opacity="0.25">
      <path id="Path_33" data-name="Path 33" d="M247.069,100a1.069,1.069,0,1,0,1.069,1.069A1.07,1.07,0,0,0,247.069,100Zm0,0" transform="translate(-222.069 -90.28)" fill="#f44336"/>
      <path id="Path_34" data-name="Path 34" d="M81.069,262.138A1.069,1.069,0,1,0,80,261.069,1.07,1.07,0,0,0,81.069,262.138Zm0,0" transform="translate(-71.447 -234.729)" fill="#f44336"/>
      <path id="Path_35" data-name="Path 35" d="M32.813,0C24.021,0,16.8,6.059,16.247,13.691,7.874,14.111,0,20.147,0,28.31a13.638,13.638,0,0,0,3.809,9.336,5.935,5.935,0,0,1-1.569,5.593A.976.976,0,0,0,2.93,44.9a10.774,10.774,0,0,0,7.463-3.016,22.262,22.262,0,0,0,6.794,1.063c8.791,0,16.006-6.058,16.565-13.688a21.967,21.967,0,0,0,5.854-1.041,10.774,10.774,0,0,0,7.463,3.016.976.976,0,0,0,.69-1.666,5.935,5.935,0,0,1-1.569-5.593A13.638,13.638,0,0,0,50,14.643C50,6.161,41.52,0,32.813,0ZM17.188,41A19.748,19.748,0,0,1,10.5,39.848a.977.977,0,0,0-1.082.248,8.812,8.812,0,0,1-4.383,2.6,7.892,7.892,0,0,0,.6-5.81.974.974,0,0,0-.239-.413A11.729,11.729,0,0,1,1.953,28.31c0-6.879,6.976-12.691,15.234-12.691,7.8,0,14.648,5.421,14.648,12.691C31.836,35.307,25.265,41,17.188,41ZM44.611,22.806a.979.979,0,0,0-.239.413,7.892,7.892,0,0,0,.6,5.81,8.809,8.809,0,0,1-4.383-2.6.978.978,0,0,0-1.082-.248,19.244,19.244,0,0,1-5.753,1.128,13.972,13.972,0,0,0-5.277-9.738H41.211a.976.976,0,1,0,0-1.952H25.473A18.219,18.219,0,0,0,18.2,13.7c.561-6.557,6.9-11.743,14.608-11.743,8.258,0,15.234,5.811,15.234,12.691A11.729,11.729,0,0,1,44.611,22.806Zm0,0" fill="#f44336"/>
      <path id="Path_36" data-name="Path 36" d="M134.54,260H121.069a1.069,1.069,0,1,0,0,2.138H134.54a1.069,1.069,0,1,0,0-2.138Zm0,0" transform="translate(-108.724 -234.729)" fill="#f44336"/>
      <path id="Path_37" data-name="Path 37" d="M98.817,320H81.069a1.069,1.069,0,1,0,0,2.138H98.817a1.069,1.069,0,1,0,0-2.138Zm0,0" transform="translate(-72.61 -288.897)" fill="#f44336"/>
      <path id="Path_38" data-name="Path 38" d="M300.54,100H287.069a1.069,1.069,0,1,0,0,2.138H300.54a1.069,1.069,0,0,0,0-2.138Zm0,0" transform="translate(-259.127 -90.28)" fill="#f44336"/>
    </g>
    <g id="speech-bubble-2" data-name="speech-bubble">
      <path id="Path_33-2" data-name="Path 33" d="M247.069,100a1.069,1.069,0,1,0,1.069,1.069A1.07,1.07,0,0,0,247.069,100Zm0,0" transform="translate(-222.069 -90.28)" fill="#616161"/>
      <path id="Path_34-2" data-name="Path 34" d="M81.069,262.138A1.069,1.069,0,1,0,80,261.069,1.07,1.07,0,0,0,81.069,262.138Zm0,0" transform="translate(-71.447 -234.729)" fill="#616161"/>
      <path id="Path_35-2" data-name="Path 35" d="M32.813,0C24.021,0,16.8,6.059,16.247,13.691,7.874,14.111,0,20.147,0,28.31a13.638,13.638,0,0,0,3.809,9.336,5.935,5.935,0,0,1-1.569,5.593A.976.976,0,0,0,2.93,44.9a10.774,10.774,0,0,0,7.463-3.016,22.262,22.262,0,0,0,6.794,1.063c8.791,0,16.006-6.058,16.565-13.688a21.967,21.967,0,0,0,5.854-1.041,10.774,10.774,0,0,0,7.463,3.016.976.976,0,0,0,.69-1.666,5.935,5.935,0,0,1-1.569-5.593A13.638,13.638,0,0,0,50,14.643C50,6.161,41.52,0,32.813,0ZM17.188,41A19.748,19.748,0,0,1,10.5,39.848a.977.977,0,0,0-1.082.248,8.812,8.812,0,0,1-4.383,2.6,7.892,7.892,0,0,0,.6-5.81.974.974,0,0,0-.239-.413A11.729,11.729,0,0,1,1.953,28.31c0-6.879,6.976-12.691,15.234-12.691,7.8,0,14.648,5.421,14.648,12.691C31.836,35.307,25.265,41,17.188,41ZM44.611,22.806a.979.979,0,0,0-.239.413,7.892,7.892,0,0,0,.6,5.81,8.809,8.809,0,0,1-4.383-2.6.978.978,0,0,0-1.082-.248,19.244,19.244,0,0,1-5.753,1.128,13.972,13.972,0,0,0-5.277-9.738H41.211a.976.976,0,1,0,0-1.952H25.473A18.219,18.219,0,0,0,18.2,13.7c.561-6.557,6.9-11.743,14.608-11.743,8.258,0,15.234,5.811,15.234,12.691A11.729,11.729,0,0,1,44.611,22.806Zm0,0" fill="#616161"/>
      <path id="Path_36-2" data-name="Path 36" d="M134.54,260H121.069a1.069,1.069,0,1,0,0,2.138H134.54a1.069,1.069,0,1,0,0-2.138Zm0,0" transform="translate(-108.724 -234.729)" fill="#616161"/>
      <path id="Path_37-2" data-name="Path 37" d="M98.817,320H81.069a1.069,1.069,0,1,0,0,2.138H98.817a1.069,1.069,0,1,0,0-2.138Zm0,0" transform="translate(-72.61 -288.897)" fill="#616161"/>
      <path id="Path_38-2" data-name="Path 38" d="M300.54,100H287.069a1.069,1.069,0,1,0,0,2.138H300.54a1.069,1.069,0,0,0,0-2.138Zm0,0" transform="translate(-259.127 -90.28)" fill="#616161"/>
    </g>
  </g>
  <g id="Group_101" data-name="Group 101">
    <g id="Path_27" data-name="Path 27" transform="translate(2 2)" fill="none" opacity="0.25">
      <path d="M43.5,0A43.5,43.5,0,1,1,0,43.5,43.5,43.5,0,0,1,43.5,0Z" stroke="none"/>
      <path d="M 43.5 2 C 37.89664840698242 2 32.46197509765625 3.096977233886719 27.34693908691406 5.260452270507812 C 22.40538787841797 7.350547790527344 17.96700286865234 10.3431396484375 14.15505981445312 14.15505981445312 C 10.3431396484375 17.96700286865234 7.350547790527344 22.40538787841797 5.260452270507812 27.34693908691406 C 3.096977233886719 32.46197509765625 2 37.89664840698242 2 43.5 C 2 49.10335159301758 3.096977233886719 54.53802490234375 5.260452270507812 59.65306091308594 C 7.350547790527344 64.59461212158203 10.3431396484375 69.03300476074219 14.15505981445312 72.84494018554688 C 17.96700286865234 76.6568603515625 22.40538787841797 79.64945220947266 27.34693908691406 81.73954772949219 C 32.46197509765625 83.90302276611328 37.89664840698242 85 43.5 85 C 49.10335159301758 85 54.53802490234375 83.90302276611328 59.65306091308594 81.73954772949219 C 64.59461212158203 79.64945220947266 69.03300476074219 76.6568603515625 72.84494018554688 72.84494018554688 C 76.6568603515625 69.03300476074219 79.64945220947266 64.59461212158203 81.73954772949219 59.65306091308594 C 83.90302276611328 54.53802490234375 85 49.10335159301758 85 43.5 C 85 37.89664840698242 83.90302276611328 32.46197509765625 81.73954772949219 27.34693908691406 C 79.64945220947266 22.40538787841797 76.6568603515625 17.96700286865234 72.84494018554688 14.15505981445312 C 69.03300476074219 10.3431396484375 64.59461212158203 7.350547790527344 59.65306091308594 5.260452270507812 C 54.53802490234375 3.096977233886719 49.10335159301758 2 43.5 2 M 43.5 0 C 67.52438354492188 0 87 19.47560882568359 87 43.5 C 87 67.52438354492188 67.52438354492188 87 43.5 87 C 19.47560882568359 87 0 67.52438354492188 0 43.5 C 0 19.47560882568359 19.47560882568359 0 43.5 0 Z" stroke="none" fill="#f44336"/>
    </g>
    <g id="Ellipse_1" data-name="Ellipse 1" fill="none" stroke="#616161" stroke-width="2">
      <circle cx="43.5" cy="43.5" r="43.5" stroke="none"/>
      <circle cx="43.5" cy="43.5" r="42.5" fill="none"/>
    </g>
  </g>
</svg>
