<svg id="Group_104" data-name="Group 104" xmlns="http://www.w3.org/2000/svg" width="89" height="89" viewBox="0 0 89 89">
  <g id="Group_123" data-name="Group 123" transform="translate(34 21)">
    <g id="list" transform="translate(-7.781 0.219)" opacity="0.25">
      <g id="Group_217" data-name="Group 217">
        <g id="Group_216" data-name="Group 216">
          <path id="Path_47" data-name="Path 47" d="M93.889,7.709,86.43.244A.824.824,0,0,0,85.843,0h-25.7A4.151,4.151,0,0,0,56,4.148V45.632a4.151,4.151,0,0,0,4.145,4.148H89.988a4.151,4.151,0,0,0,4.145-4.148V8.3A.825.825,0,0,0,93.889,7.709ZM86.672,2.833,91.3,7.467H86.672Zm5.8,42.8a2.491,2.491,0,0,1-2.487,2.489H60.145a2.491,2.491,0,0,1-2.487-2.489V4.148a2.491,2.491,0,0,1,2.487-2.489H85.014V8.3a.829.829,0,0,0,.829.83h6.632Z" transform="translate(-56)" fill="#522da8"/>
        </g>
      </g>
      <g id="Group_219" data-name="Group 219" transform="translate(4.1 11.636)">
        <g id="Group_218" data-name="Group 218" transform="translate(0)">
          <path id="Path_48" data-name="Path 48" d="M99.28,112a3.28,3.28,0,1,0,3.28,3.28A3.284,3.284,0,0,0,99.28,112Zm0,4.92a1.64,1.64,0,1,1,1.64-1.64A1.642,1.642,0,0,1,99.28,116.92Z" transform="translate(-96 -112)" fill="#522da8"/>
        </g>
      </g>
      <g id="Group_221" data-name="Group 221" transform="translate(4.1 20.779)">
        <g id="Group_220" data-name="Group 220" transform="translate(0)">
          <path id="Path_49" data-name="Path 49" d="M99.28,200a3.28,3.28,0,1,0,3.28,3.28A3.284,3.284,0,0,0,99.28,200Zm0,4.92a1.64,1.64,0,1,1,1.64-1.64A1.642,1.642,0,0,1,99.28,204.92Z" transform="translate(-96 -200)" fill="#522da8"/>
        </g>
      </g>
      <g id="Group_223" data-name="Group 223" transform="translate(4.1 29.922)">
        <g id="Group_222" data-name="Group 222" transform="translate(0)">
          <path id="Path_50" data-name="Path 50" d="M99.28,288a3.28,3.28,0,1,0,3.28,3.28A3.284,3.284,0,0,0,99.28,288Zm0,4.92a1.64,1.64,0,1,1,1.64-1.64A1.642,1.642,0,0,1,99.28,292.92Z" transform="translate(-96 -288)" fill="#522da8"/>
        </g>
      </g>
      <g id="Group_225" data-name="Group 225" transform="translate(4.1 39.12)">
        <g id="Group_224" data-name="Group 224" transform="translate(0)">
          <path id="Path_51" data-name="Path 51" d="M99.28,376a3.28,3.28,0,1,0,3.28,3.28A3.284,3.284,0,0,0,99.28,376Zm0,4.921a1.64,1.64,0,1,1,1.64-1.64A1.642,1.642,0,0,1,99.28,380.921Z" transform="translate(-96 -376)" fill="#522da8"/>
        </g>
      </g>
      <g id="Group_227" data-name="Group 227" transform="translate(13.05 15.748)">
        <g id="Group_226" data-name="Group 226" transform="translate(0 0)">
          <rect id="Rectangle_33" data-name="Rectangle 33" width="21.393" height="1.945" fill="#522da8"/>
        </g>
      </g>
      <g id="Group_229" data-name="Group 229" transform="translate(13.82 3.89)">
        <g id="Group_228" data-name="Group 228" transform="translate(0 0)">
          <rect id="Rectangle_34" data-name="Rectangle 34" width="10.696" height="1.945" fill="#522da8"/>
        </g>
      </g>
      <g id="Group_231" data-name="Group 231" transform="translate(10.894 7.779)">
        <g id="Group_230" data-name="Group 230" transform="translate(0 0)">
          <rect id="Rectangle_35" data-name="Rectangle 35" width="15.558" height="1.945" fill="#522da8"/>
        </g>
      </g>
      <g id="Group_233" data-name="Group 233" transform="translate(13.05 24.6)">
        <g id="Group_232" data-name="Group 232" transform="translate(0 0)">
          <rect id="Rectangle_36" data-name="Rectangle 36" width="21.393" height="0.972" fill="#522da8"/>
        </g>
      </g>
      <g id="Group_235" data-name="Group 235" transform="translate(13.05 34.44)">
        <g id="Group_234" data-name="Group 234" transform="translate(0 0)">
          <rect id="Rectangle_37" data-name="Rectangle 37" width="21.393" height="0.972" fill="#522da8"/>
        </g>
      </g>
      <g id="Group_237" data-name="Group 237" transform="translate(13.05 43.361)">
        <g id="Group_236" data-name="Group 236" transform="translate(0 0)">
          <rect id="Rectangle_38" data-name="Rectangle 38" width="21.393" height="0.972" fill="#522da8"/>
        </g>
      </g>
      <g id="Group_239" data-name="Group 239" transform="translate(18.687 12.792)">
        <g id="Group_238" data-name="Group 238" transform="translate(0 0)">
          <rect id="Rectangle_39" data-name="Rectangle 39" width="1.945" height="0.972" fill="#522da8"/>
        </g>
      </g>
      <g id="Group_241" data-name="Group 241" transform="translate(15.736 12.792)">
        <g id="Group_240" data-name="Group 240" transform="translate(0 0)">
          <rect id="Rectangle_40" data-name="Rectangle 40" width="1.945" height="0.972" fill="#522da8"/>
        </g>
      </g>
      <g id="Group_243" data-name="Group 243" transform="translate(12.782 12.792)">
        <g id="Group_242" data-name="Group 242" transform="translate(0 0)">
          <rect id="Rectangle_41" data-name="Rectangle 41" width="0.972" height="0.972" fill="#522da8"/>
        </g>
      </g>
    </g>
    <g id="list-2" data-name="list" transform="translate(-10 -2)">
      <g id="Group_217-2" data-name="Group 217">
        <g id="Group_216-2" data-name="Group 216">
          <path id="Path_47-2" data-name="Path 47" d="M93.889,7.709,86.43.244A.824.824,0,0,0,85.843,0h-25.7A4.151,4.151,0,0,0,56,4.148V45.632a4.151,4.151,0,0,0,4.145,4.148H89.988a4.151,4.151,0,0,0,4.145-4.148V8.3A.825.825,0,0,0,93.889,7.709ZM86.672,2.833,91.3,7.467H86.672Zm5.8,42.8a2.491,2.491,0,0,1-2.487,2.489H60.145a2.491,2.491,0,0,1-2.487-2.489V4.148a2.491,2.491,0,0,1,2.487-2.489H85.014V8.3a.829.829,0,0,0,.829.83h6.632Z" transform="translate(-56)" fill="#616161"/>
        </g>
      </g>
      <g id="Group_219-2" data-name="Group 219" transform="translate(4.1 11.636)">
        <g id="Group_218-2" data-name="Group 218" transform="translate(0)">
          <path id="Path_48-2" data-name="Path 48" d="M99.28,112a3.28,3.28,0,1,0,3.28,3.28A3.284,3.284,0,0,0,99.28,112Zm0,4.92a1.64,1.64,0,1,1,1.64-1.64A1.642,1.642,0,0,1,99.28,116.92Z" transform="translate(-96 -112)" fill="#616161"/>
        </g>
      </g>
      <g id="Group_221-2" data-name="Group 221" transform="translate(4.1 20.779)">
        <g id="Group_220-2" data-name="Group 220" transform="translate(0)">
          <path id="Path_49-2" data-name="Path 49" d="M99.28,200a3.28,3.28,0,1,0,3.28,3.28A3.284,3.284,0,0,0,99.28,200Zm0,4.92a1.64,1.64,0,1,1,1.64-1.64A1.642,1.642,0,0,1,99.28,204.92Z" transform="translate(-96 -200)" fill="#616161"/>
        </g>
      </g>
      <g id="Group_223-2" data-name="Group 223" transform="translate(4.1 29.922)">
        <g id="Group_222-2" data-name="Group 222" transform="translate(0)">
          <path id="Path_50-2" data-name="Path 50" d="M99.28,288a3.28,3.28,0,1,0,3.28,3.28A3.284,3.284,0,0,0,99.28,288Zm0,4.92a1.64,1.64,0,1,1,1.64-1.64A1.642,1.642,0,0,1,99.28,292.92Z" transform="translate(-96 -288)" fill="#616161"/>
        </g>
      </g>
      <g id="Group_225-2" data-name="Group 225" transform="translate(4.1 39.12)">
        <g id="Group_224-2" data-name="Group 224" transform="translate(0)">
          <path id="Path_51-2" data-name="Path 51" d="M99.28,376a3.28,3.28,0,1,0,3.28,3.28A3.284,3.284,0,0,0,99.28,376Zm0,4.921a1.64,1.64,0,1,1,1.64-1.64A1.642,1.642,0,0,1,99.28,380.921Z" transform="translate(-96 -376)" fill="#616161"/>
        </g>
      </g>
      <g id="Group_227-2" data-name="Group 227" transform="translate(13.05 15.748)">
        <g id="Group_226-2" data-name="Group 226" transform="translate(0 0)">
          <rect id="Rectangle_33-2" data-name="Rectangle 33" width="21.393" height="1.945" fill="#616161"/>
        </g>
      </g>
      <g id="Group_229-2" data-name="Group 229" transform="translate(13.82 3.89)">
        <g id="Group_228-2" data-name="Group 228" transform="translate(0 0)">
          <rect id="Rectangle_34-2" data-name="Rectangle 34" width="10.696" height="1.945" fill="#616161"/>
        </g>
      </g>
      <g id="Group_231-2" data-name="Group 231" transform="translate(10.894 7.779)">
        <g id="Group_230-2" data-name="Group 230" transform="translate(0 0)">
          <rect id="Rectangle_35-2" data-name="Rectangle 35" width="15.558" height="1.945" fill="#616161"/>
        </g>
      </g>
      <g id="Group_233-2" data-name="Group 233" transform="translate(13.05 24.6)">
        <g id="Group_232-2" data-name="Group 232" transform="translate(0 0)">
          <rect id="Rectangle_36-2" data-name="Rectangle 36" width="21.393" height="0.972" fill="#616161"/>
        </g>
      </g>
      <g id="Group_235-2" data-name="Group 235" transform="translate(13.05 34.44)">
        <g id="Group_234-2" data-name="Group 234" transform="translate(0 0)">
          <rect id="Rectangle_37-2" data-name="Rectangle 37" width="21.393" height="0.972" fill="#616161"/>
        </g>
      </g>
      <g id="Group_237-2" data-name="Group 237" transform="translate(13.05 43.361)">
        <g id="Group_236-2" data-name="Group 236" transform="translate(0 0)">
          <rect id="Rectangle_38-2" data-name="Rectangle 38" width="21.393" height="0.972" fill="#616161"/>
        </g>
      </g>
      <g id="Group_239-2" data-name="Group 239" transform="translate(18.687 12.792)">
        <g id="Group_238-2" data-name="Group 238" transform="translate(0 0)">
          <rect id="Rectangle_39-2" data-name="Rectangle 39" width="1.945" height="0.972" fill="#616161"/>
        </g>
      </g>
      <g id="Group_241-2" data-name="Group 241" transform="translate(15.736 12.792)">
        <g id="Group_240-2" data-name="Group 240" transform="translate(0 0)">
          <rect id="Rectangle_40-2" data-name="Rectangle 40" width="1.945" height="0.972" fill="#616161"/>
        </g>
      </g>
      <g id="Group_243-2" data-name="Group 243" transform="translate(12.782 12.792)">
        <g id="Group_242-2" data-name="Group 242" transform="translate(0 0)">
          <rect id="Rectangle_41-2" data-name="Rectangle 41" width="0.972" height="0.972" fill="#616161"/>
        </g>
      </g>
    </g>
  </g>
  <g id="Group_101" data-name="Group 101">
    <g id="Path_27" data-name="Path 27" transform="translate(2 2)" fill="none" opacity="0.25">
      <path d="M43.5,0A43.5,43.5,0,1,1,0,43.5,43.5,43.5,0,0,1,43.5,0Z" stroke="none"/>
      <path d="M 43.5 2 C 37.89664840698242 2 32.46197509765625 3.096977233886719 27.34693908691406 5.260452270507812 C 22.40538787841797 7.350547790527344 17.96700286865234 10.3431396484375 14.15505981445312 14.15505981445312 C 10.3431396484375 17.96700286865234 7.350547790527344 22.40538787841797 5.260452270507812 27.34693908691406 C 3.096977233886719 32.46197509765625 2 37.89664840698242 2 43.5 C 2 49.10335159301758 3.096977233886719 54.53802490234375 5.260452270507812 59.65306091308594 C 7.350547790527344 64.59461212158203 10.3431396484375 69.03300476074219 14.15505981445312 72.84494018554688 C 17.96700286865234 76.6568603515625 22.40538787841797 79.64945220947266 27.34693908691406 81.73954772949219 C 32.46197509765625 83.90302276611328 37.89664840698242 85 43.5 85 C 49.10335159301758 85 54.53802490234375 83.90302276611328 59.65306091308594 81.73954772949219 C 64.59461212158203 79.64945220947266 69.03300476074219 76.6568603515625 72.84494018554688 72.84494018554688 C 76.6568603515625 69.03300476074219 79.64945220947266 64.59461212158203 81.73954772949219 59.65306091308594 C 83.90302276611328 54.53802490234375 85 49.10335159301758 85 43.5 C 85 37.89664840698242 83.90302276611328 32.46197509765625 81.73954772949219 27.34693908691406 C 79.64945220947266 22.40538787841797 76.6568603515625 17.96700286865234 72.84494018554688 14.15505981445312 C 69.03300476074219 10.3431396484375 64.59461212158203 7.350547790527344 59.65306091308594 5.260452270507812 C 54.53802490234375 3.096977233886719 49.10335159301758 2 43.5 2 M 43.5 0 C 67.52438354492188 0 87 19.47560882568359 87 43.5 C 87 67.52438354492188 67.52438354492188 87 43.5 87 C 19.47560882568359 87 0 67.52438354492188 0 43.5 C 0 19.47560882568359 19.47560882568359 0 43.5 0 Z" stroke="none" fill="#522da8"/>
    </g>
    <g id="Ellipse_1" data-name="Ellipse 1" fill="none" stroke="#616161" stroke-width="2">
      <circle cx="43.5" cy="43.5" r="43.5" stroke="none"/>
      <circle cx="43.5" cy="43.5" r="42.5" fill="none"/>
    </g>
  </g>
</svg>
