<svg id="Group_104" data-name="Group 104" xmlns="http://www.w3.org/2000/svg" width="89" height="89" viewBox="0 0 89 89">
  <g id="Group_123" data-name="Group 123" transform="translate(24 19)">
    <g id="placeholder" transform="translate(1.874 1.874)" opacity="0.25">
      <g id="Group_171" data-name="Group 171">
        <g id="Group_170" data-name="Group 170">
          <path id="Path_30" data-name="Path 30" d="M75.216,0C63.183,0,56,7.5,56,20.05c0,13.607,17.907,29.215,18.67,29.872a.835.835,0,0,0,1.091,0c.763-.657,18.67-16.266,18.67-29.872C94.431,7.5,87.248,0,75.216,0Zm0,48.17c-3.024-2.749-17.545-16.556-17.545-28.12,0-11.509,6.559-18.379,17.545-18.379S92.76,8.541,92.76,20.05C92.76,31.613,78.239,45.421,75.216,48.17Z" transform="translate(-56 0)" fill="#2196f3"/>
        </g>
      </g>
      <g id="Group_173" data-name="Group 173" transform="translate(4.993 4.161)">
        <g id="Group_172" data-name="Group 172">
          <path id="Path_31" data-name="Path 31" d="M118.223,40a14.146,14.146,0,1,0,14.223,14.146A14.2,14.2,0,0,0,118.223,40Zm0,26.627a12.482,12.482,0,1,1,12.55-12.482A12.53,12.53,0,0,1,118.223,66.627Z" transform="translate(-104 -40)" fill="#2196f3"/>
        </g>
      </g>
      <g id="Group_175" data-name="Group 175" transform="translate(10.895 9.205)">
        <g id="Group_174" data-name="Group 174">
          <path id="Path_32" data-name="Path 32" d="M175.81,91.328h-4.161V89.664A1.666,1.666,0,0,0,169.985,88h-3.328a1.666,1.666,0,0,0-1.664,1.664v1.664h-4.161a.832.832,0,0,0-.832.832v9.985a.832.832,0,0,0,.832.832H175.81a.832.832,0,0,0,.832-.832V92.161A.832.832,0,0,0,175.81,91.328Zm-9.153-1.664h3.328v1.664h-3.328Zm8.321,11.649H161.664V97.132a4.118,4.118,0,0,0,2.5.854h3.328v.832h1.664v-.832h3.328a4.117,4.117,0,0,0,2.5-.854Zm0-7.489a2.5,2.5,0,0,1-2.5,2.5h-8.321a2.5,2.5,0,0,1-2.5-2.5v-.832h13.314Z" transform="translate(-160 -88)" fill="#2196f3"/>
        </g>
      </g>
      <g id="Group_177" data-name="Group 177" transform="translate(15.06 26.35)">
        <g id="Group_176" data-name="Group 176" transform="translate(0 0)">
          <rect id="Rectangle_24" data-name="Rectangle 24" width="1.874" height="0.937" fill="#2196f3"/>
        </g>
      </g>
      <g id="Group_179" data-name="Group 179" transform="translate(17.883 26.35)">
        <g id="Group_178" data-name="Group 178" transform="translate(0 0)">
          <rect id="Rectangle_25" data-name="Rectangle 25" width="1.874" height="0.937" fill="#2196f3"/>
        </g>
      </g>
      <g id="Group_181" data-name="Group 181" transform="translate(21.648 26.35)">
        <g id="Group_180" data-name="Group 180" transform="translate(0 0)">
          <rect id="Rectangle_26" data-name="Rectangle 26" width="1.874" height="0.937" fill="#2196f3"/>
        </g>
      </g>
      <g id="Group_183" data-name="Group 183" transform="translate(29.178 45.187)">
        <g id="Group_182" data-name="Group 182" transform="translate(0 0)">
          <rect id="Rectangle_27" data-name="Rectangle 27" width="1.874" height="2.812" fill="#2196f3"/>
        </g>
      </g>
      <g id="Group_185" data-name="Group 185" transform="translate(32.021 45.187)">
        <g id="Group_184" data-name="Group 184" transform="translate(0 0)">
          <rect id="Rectangle_28" data-name="Rectangle 28" width="2.812" height="2.812" fill="#2196f3"/>
        </g>
      </g>
      <g id="Group_187" data-name="Group 187" transform="translate(35.77 45.187)">
        <g id="Group_186" data-name="Group 186" transform="translate(0 0)">
          <rect id="Rectangle_29" data-name="Rectangle 29" width="1.874" height="2.812" fill="#2196f3"/>
        </g>
      </g>
      <g id="Group_189" data-name="Group 189" transform="translate(0.937 45.187)">
        <g id="Group_188" data-name="Group 188" transform="translate(0 0)">
          <rect id="Rectangle_30" data-name="Rectangle 30" width="1.874" height="2.812" fill="#2196f3"/>
        </g>
      </g>
      <g id="Group_191" data-name="Group 191" transform="translate(3.749 45.187)">
        <g id="Group_190" data-name="Group 190" transform="translate(0 0)">
          <rect id="Rectangle_31" data-name="Rectangle 31" width="1.874" height="2.812" fill="#2196f3"/>
        </g>
      </g>
      <g id="Group_193" data-name="Group 193" transform="translate(7.53 45.187)">
        <g id="Group_192" data-name="Group 192" transform="translate(0 0)">
          <rect id="Rectangle_32" data-name="Rectangle 32" width="1.874" height="2.812" fill="#2196f3"/>
        </g>
      </g>
    </g>
    <g id="placeholder-2" data-name="placeholder">
      <g id="Group_171-2" data-name="Group 171">
        <g id="Group_170-2" data-name="Group 170">
          <path id="Path_30-2" data-name="Path 30" d="M75.216,0C63.183,0,56,7.5,56,20.05c0,13.607,17.907,29.215,18.67,29.872a.835.835,0,0,0,1.091,0c.763-.657,18.67-16.266,18.67-29.872C94.431,7.5,87.248,0,75.216,0Zm0,48.17c-3.024-2.749-17.545-16.556-17.545-28.12,0-11.509,6.559-18.379,17.545-18.379S92.76,8.541,92.76,20.05C92.76,31.613,78.239,45.421,75.216,48.17Z" transform="translate(-56 0)" fill="#616161"/>
        </g>
      </g>
      <g id="Group_173-2" data-name="Group 173" transform="translate(4.993 4.161)">
        <g id="Group_172-2" data-name="Group 172">
          <path id="Path_31-2" data-name="Path 31" d="M118.223,40a14.146,14.146,0,1,0,14.223,14.146A14.2,14.2,0,0,0,118.223,40Zm0,26.627a12.482,12.482,0,1,1,12.55-12.482A12.53,12.53,0,0,1,118.223,66.627Z" transform="translate(-104 -40)" fill="#616161"/>
        </g>
      </g>
      <g id="Group_175-2" data-name="Group 175" transform="translate(10.895 9.205)">
        <g id="Group_174-2" data-name="Group 174">
          <path id="Path_32-2" data-name="Path 32" d="M175.81,91.328h-4.161V89.664A1.666,1.666,0,0,0,169.985,88h-3.328a1.666,1.666,0,0,0-1.664,1.664v1.664h-4.161a.832.832,0,0,0-.832.832v9.985a.832.832,0,0,0,.832.832H175.81a.832.832,0,0,0,.832-.832V92.161A.832.832,0,0,0,175.81,91.328Zm-9.153-1.664h3.328v1.664h-3.328Zm8.321,11.649H161.664V97.132a4.118,4.118,0,0,0,2.5.854h3.328v.832h1.664v-.832h3.328a4.117,4.117,0,0,0,2.5-.854Zm0-7.489a2.5,2.5,0,0,1-2.5,2.5h-8.321a2.5,2.5,0,0,1-2.5-2.5v-.832h13.314Z" transform="translate(-160 -88)" fill="#616161"/>
        </g>
      </g>
      <g id="Group_177-2" data-name="Group 177" transform="translate(15.06 26.35)">
        <g id="Group_176-2" data-name="Group 176" transform="translate(0 0)">
          <rect id="Rectangle_24-2" data-name="Rectangle 24" width="1.874" height="0.937" fill="#616161"/>
        </g>
      </g>
      <g id="Group_179-2" data-name="Group 179" transform="translate(17.883 26.35)">
        <g id="Group_178-2" data-name="Group 178" transform="translate(0 0)">
          <rect id="Rectangle_25-2" data-name="Rectangle 25" width="1.874" height="0.937" fill="#616161"/>
        </g>
      </g>
      <g id="Group_181-2" data-name="Group 181" transform="translate(21.648 26.35)">
        <g id="Group_180-2" data-name="Group 180" transform="translate(0 0)">
          <rect id="Rectangle_26-2" data-name="Rectangle 26" width="1.874" height="0.937" fill="#616161"/>
        </g>
      </g>
      <g id="Group_183-2" data-name="Group 183" transform="translate(29.178 45.187)">
        <g id="Group_182-2" data-name="Group 182" transform="translate(0 0)">
          <rect id="Rectangle_27-2" data-name="Rectangle 27" width="1.874" height="2.812" fill="#616161"/>
        </g>
      </g>
      <g id="Group_185-2" data-name="Group 185" transform="translate(32.021 45.187)">
        <g id="Group_184-2" data-name="Group 184" transform="translate(0 0)">
          <rect id="Rectangle_28-2" data-name="Rectangle 28" width="2.812" height="2.812" fill="#616161"/>
        </g>
      </g>
      <g id="Group_187-2" data-name="Group 187" transform="translate(35.77 45.187)">
        <g id="Group_186-2" data-name="Group 186" transform="translate(0 0)">
          <rect id="Rectangle_29-2" data-name="Rectangle 29" width="1.874" height="2.812" fill="#616161"/>
        </g>
      </g>
      <g id="Group_189-2" data-name="Group 189" transform="translate(0.937 45.187)">
        <g id="Group_188-2" data-name="Group 188" transform="translate(0 0)">
          <rect id="Rectangle_30-2" data-name="Rectangle 30" width="1.874" height="2.812" fill="#616161"/>
        </g>
      </g>
      <g id="Group_191-2" data-name="Group 191" transform="translate(3.749 45.187)">
        <g id="Group_190-2" data-name="Group 190" transform="translate(0 0)">
          <rect id="Rectangle_31-2" data-name="Rectangle 31" width="1.874" height="2.812" fill="#616161"/>
        </g>
      </g>
      <g id="Group_193-2" data-name="Group 193" transform="translate(7.53 45.187)">
        <g id="Group_192-2" data-name="Group 192" transform="translate(0 0)">
          <rect id="Rectangle_32-2" data-name="Rectangle 32" width="1.874" height="2.812" fill="#616161"/>
        </g>
      </g>
    </g>
  </g>
  <g id="Group_101" data-name="Group 101">
    <g id="Path_27" data-name="Path 27" transform="translate(2 2)" fill="none" opacity="0.25">
      <path d="M43.5,0A43.5,43.5,0,1,1,0,43.5,43.5,43.5,0,0,1,43.5,0Z" stroke="none"/>
      <path d="M 43.5 2 C 37.89664840698242 2 32.46197509765625 3.096977233886719 27.34693908691406 5.260452270507812 C 22.40538787841797 7.350547790527344 17.96700286865234 10.3431396484375 14.15505981445312 14.15505981445312 C 10.3431396484375 17.96700286865234 7.350547790527344 22.40538787841797 5.260452270507812 27.34693908691406 C 3.096977233886719 32.46197509765625 2 37.89664840698242 2 43.5 C 2 49.10335159301758 3.096977233886719 54.53802490234375 5.260452270507812 59.65306091308594 C 7.350547790527344 64.59461212158203 10.3431396484375 69.03300476074219 14.15505981445312 72.84494018554688 C 17.96700286865234 76.6568603515625 22.40538787841797 79.64945220947266 27.34693908691406 81.73954772949219 C 32.46197509765625 83.90302276611328 37.89664840698242 85 43.5 85 C 49.10335159301758 85 54.53802490234375 83.90302276611328 59.65306091308594 81.73954772949219 C 64.59461212158203 79.64945220947266 69.03300476074219 76.6568603515625 72.84494018554688 72.84494018554688 C 76.6568603515625 69.03300476074219 79.64945220947266 64.59461212158203 81.73954772949219 59.65306091308594 C 83.90302276611328 54.53802490234375 85 49.10335159301758 85 43.5 C 85 37.89664840698242 83.90302276611328 32.46197509765625 81.73954772949219 27.34693908691406 C 79.64945220947266 22.40538787841797 76.6568603515625 17.96700286865234 72.84494018554688 14.15505981445312 C 69.03300476074219 10.3431396484375 64.59461212158203 7.350547790527344 59.65306091308594 5.260452270507812 C 54.53802490234375 3.096977233886719 49.10335159301758 2 43.5 2 M 43.5 0 C 67.52438354492188 0 87 19.47560882568359 87 43.5 C 87 67.52438354492188 67.52438354492188 87 43.5 87 C 19.47560882568359 87 0 67.52438354492188 0 43.5 C 0 19.47560882568359 19.47560882568359 0 43.5 0 Z" stroke="none" fill="#2196f3"/>
    </g>
    <g id="Ellipse_1" data-name="Ellipse 1" fill="none" stroke="#616161" stroke-width="2">
      <circle cx="43.5" cy="43.5" r="43.5" stroke="none"/>
      <circle cx="43.5" cy="43.5" r="42.5" fill="none"/>
    </g>
  </g>
</svg>
