<svg xmlns="http://www.w3.org/2000/svg" width="148" height="148" viewBox="0 0 148 148">
  <g id="Group_104" data-name="Group 104" transform="translate(-851 -902)">
    <g id="Group_123" data-name="Group 123" transform="translate(881 932)">
      <g id="coding" transform="translate(2.325 2.325)" opacity="0.25">
        <g id="Group_128" data-name="Group 128" transform="translate(0 74.02)">
          <g id="Group_127" data-name="Group 127">
            <path id="Path_13" data-name="Path 13" d="M10.2,416A10.211,10.211,0,0,0,0,426.2a1.455,1.455,0,0,0,1.457,1.457H18.939A1.455,1.455,0,0,0,20.4,426.2,10.211,10.211,0,0,0,10.2,416Zm-7.137,8.741a7.293,7.293,0,0,1,5.68-5.667v2.753h2.914v-2.753a7.3,7.3,0,0,1,5.68,5.667Z" transform="translate(0 -416)" fill="#1976d2"/>
          </g>
        </g>
        <g id="Group_130" data-name="Group 130">
          <g id="Group_129" data-name="Group 129">
            <path id="Path_14" data-name="Path 14" d="M84.247,61.4h-2.5c-.079-.2-.16-.4-.248-.594l1.772-1.772a1.426,1.426,0,0,0,0-2.019l-6.057-6.057a1.4,1.4,0,0,0-1.072-.406,7.124,7.124,0,0,0,3.827-6.287V7.14A7.148,7.148,0,0,0,72.824,0H7.14A7.148,7.148,0,0,0,0,7.14V44.265A7.148,7.148,0,0,0,7.14,51.4H25.774l-5.395,10h-2.53a5,5,0,1,0,0,10h30.7a1.427,1.427,0,0,0,1.428,1.428h2.5c.079.2.16.4.248.594L50.958,75.19a1.426,1.426,0,0,0,0,2.019l6.057,6.057a1.426,1.426,0,0,0,2.019,0l1.772-1.772c.2.089.4.17.594.248v2.5a1.427,1.427,0,0,0,1.428,1.428H71.4a1.427,1.427,0,0,0,1.428-1.428v-2.5c.2-.079.4-.16.594-.248l1.772,1.772a1.426,1.426,0,0,0,2.019,0l6.057-6.057a1.426,1.426,0,0,0,0-2.019l-1.772-1.772c.089-.2.17-.4.248-.594h2.5A1.427,1.427,0,0,0,85.675,71.4V62.828A1.427,1.427,0,0,0,84.247,61.4ZM2.856,7.14A4.289,4.289,0,0,1,7.14,2.856H72.824A4.289,4.289,0,0,1,77.107,7.14V37.126H2.856ZM7.14,48.549a4.289,4.289,0,0,1-4.284-4.284V39.982H77.107v4.284a4.289,4.289,0,0,1-4.284,4.284H7.14Zm68.032,2.427L73.418,52.73c-.2-.089-.4-.17-.594-.248V51.4A7.046,7.046,0,0,0,75.171,50.977ZM61.4,51.4v1.077c-.2.079-.4.16-.594.248L59.481,51.4Zm-4.833,0-1.231,1.231L54.5,51.4ZM48.549,68.54h-30.7a2.142,2.142,0,1,1,0-4.284h30.7ZM23.624,61.4,29.018,51.4H51.042l2.239,3.286-2.323,2.323a1.426,1.426,0,0,0,0,2.019L52.73,60.8c-.089.2-.17.4-.248.594H23.624Zm59.195,8.569H80.736a1.429,1.429,0,0,0-1.362,1,12.845,12.845,0,0,1-.871,2.083,1.428,1.428,0,0,0,.257,1.671L80.239,76.2,76.2,80.237l-1.479-1.479a1.431,1.431,0,0,0-1.671-.257,12.847,12.847,0,0,1-2.083.871,1.431,1.431,0,0,0-1,1.364v2.083H64.256V80.736a1.429,1.429,0,0,0-1-1.362,12.847,12.847,0,0,1-2.083-.871,1.431,1.431,0,0,0-1.671.257l-1.479,1.479L53.987,76.2l1.479-1.479a1.428,1.428,0,0,0,.257-1.671,12.847,12.847,0,0,1-.871-2.083,1.431,1.431,0,0,0-1.364-1H51.4V64.256h2.083a1.429,1.429,0,0,0,1.362-1,12.849,12.849,0,0,1,.871-2.083,1.428,1.428,0,0,0-.257-1.671l-1.479-1.479,4.038-4.038L59.5,55.466a1.426,1.426,0,0,0,1.671.257,12.847,12.847,0,0,1,2.083-.871,1.431,1.431,0,0,0,1-1.364V51.4h5.712v2.083a1.429,1.429,0,0,0,1,1.362,12.848,12.848,0,0,1,2.083.871,1.426,1.426,0,0,0,1.671-.257L76.2,53.985l4.038,4.038L78.758,59.5a1.428,1.428,0,0,0-.257,1.671,12.847,12.847,0,0,1,.871,2.083,1.431,1.431,0,0,0,1.364,1h2.083Z" fill="#1976d2"/>
          </g>
        </g>
        <g id="Group_132" data-name="Group 132" transform="translate(57.995 57.995)">
          <g id="Group_131" data-name="Group 131">
            <path id="Path_15" data-name="Path 15" d="M336.741,328a8.741,8.741,0,1,0,8.741,8.741A8.75,8.75,0,0,0,336.741,328Zm0,14.568a5.827,5.827,0,1,1,5.827-5.827A5.833,5.833,0,0,1,336.741,342.568Z" transform="translate(-328 -328)" fill="#1976d2"/>
          </g>
        </g>
        <g id="Group_134" data-name="Group 134" transform="translate(15.653 9.168)">
          <g id="Group_133" data-name="Group 133">
            <path id="Path_16" data-name="Path 16" d="M100.683,52.4l-2.06-2.06-10.2,10.2a1.455,1.455,0,0,0,0,2.06l10.2,10.2,2.06-2.06-9.168-9.168Z" transform="translate(-87.998 -50.344)" fill="#1976d2"/>
          </g>
        </g>
        <g id="Group_136" data-name="Group 136" transform="translate(47.376 9.168)">
          <g id="Group_135" data-name="Group 135">
            <path id="Path_17" data-name="Path 17" d="M278.6,60.542l-10.2-10.2-2.06,2.06,9.168,9.168-9.168,9.168,2.06,2.06,10.2-10.2A1.455,1.455,0,0,0,278.6,60.542Z" transform="translate(-266.344 -50.344)" fill="#1976d2"/>
          </g>
        </g>
        <g id="Group_138" data-name="Group 138" transform="translate(30.002 5.184)">
          <g id="Group_137" data-name="Group 137" transform="translate(0 0)">
            <rect id="Rectangle_13" data-name="Rectangle 13" width="29.311" height="2.914" transform="translate(0 26.215) rotate(-63.435)" fill="#1976d2"/>
          </g>
        </g>
        <g id="Group_140" data-name="Group 140" transform="translate(55.797 28.468)">
          <g id="Group_139" data-name="Group 139">
            <rect id="Rectangle_14" data-name="Rectangle 14" width="2.906" height="2.906" fill="#1976d2"/>
          </g>
        </g>
        <g id="Group_142" data-name="Group 142" transform="translate(61.49 28.468)">
          <g id="Group_141" data-name="Group 141">
            <rect id="Rectangle_15" data-name="Rectangle 15" width="2.906" height="2.906" fill="#1976d2"/>
          </g>
        </g>
        <g id="Group_144" data-name="Group 144" transform="translate(67.184 28.468)">
          <g id="Group_143" data-name="Group 143">
            <rect id="Rectangle_16" data-name="Rectangle 16" width="2.906" height="2.906" fill="#1976d2"/>
          </g>
        </g>
      </g>
      <g id="coding-2" data-name="coding">
        <g id="Group_128-2" data-name="Group 128" transform="translate(0 74.02)">
          <g id="Group_127-2" data-name="Group 127">
            <path id="Path_13-2" data-name="Path 13" d="M10.2,416A10.211,10.211,0,0,0,0,426.2a1.455,1.455,0,0,0,1.457,1.457H18.939A1.455,1.455,0,0,0,20.4,426.2,10.211,10.211,0,0,0,10.2,416Zm-7.137,8.741a7.293,7.293,0,0,1,5.68-5.667v2.753h2.914v-2.753a7.3,7.3,0,0,1,5.68,5.667Z" transform="translate(0 -416)" fill="#616161"/>
          </g>
        </g>
        <g id="Group_130-2" data-name="Group 130">
          <g id="Group_129-2" data-name="Group 129">
            <path id="Path_14-2" data-name="Path 14" d="M84.247,61.4h-2.5c-.079-.2-.16-.4-.248-.594l1.772-1.772a1.426,1.426,0,0,0,0-2.019l-6.057-6.057a1.4,1.4,0,0,0-1.072-.406,7.124,7.124,0,0,0,3.827-6.287V7.14A7.148,7.148,0,0,0,72.824,0H7.14A7.148,7.148,0,0,0,0,7.14V44.265A7.148,7.148,0,0,0,7.14,51.4H25.774l-5.395,10h-2.53a5,5,0,1,0,0,10h30.7a1.427,1.427,0,0,0,1.428,1.428h2.5c.079.2.16.4.248.594L50.958,75.19a1.426,1.426,0,0,0,0,2.019l6.057,6.057a1.426,1.426,0,0,0,2.019,0l1.772-1.772c.2.089.4.17.594.248v2.5a1.427,1.427,0,0,0,1.428,1.428H71.4a1.427,1.427,0,0,0,1.428-1.428v-2.5c.2-.079.4-.16.594-.248l1.772,1.772a1.426,1.426,0,0,0,2.019,0l6.057-6.057a1.426,1.426,0,0,0,0-2.019l-1.772-1.772c.089-.2.17-.4.248-.594h2.5A1.427,1.427,0,0,0,85.675,71.4V62.828A1.427,1.427,0,0,0,84.247,61.4ZM2.856,7.14A4.289,4.289,0,0,1,7.14,2.856H72.824A4.289,4.289,0,0,1,77.107,7.14V37.126H2.856ZM7.14,48.549a4.289,4.289,0,0,1-4.284-4.284V39.982H77.107v4.284a4.289,4.289,0,0,1-4.284,4.284H7.14Zm68.032,2.427L73.418,52.73c-.2-.089-.4-.17-.594-.248V51.4A7.046,7.046,0,0,0,75.171,50.977ZM61.4,51.4v1.077c-.2.079-.4.16-.594.248L59.481,51.4Zm-4.833,0-1.231,1.231L54.5,51.4ZM48.549,68.54h-30.7a2.142,2.142,0,1,1,0-4.284h30.7ZM23.624,61.4,29.018,51.4H51.042l2.239,3.286-2.323,2.323a1.426,1.426,0,0,0,0,2.019L52.73,60.8c-.089.2-.17.4-.248.594H23.624Zm59.195,8.569H80.736a1.429,1.429,0,0,0-1.362,1,12.845,12.845,0,0,1-.871,2.083,1.428,1.428,0,0,0,.257,1.671L80.239,76.2,76.2,80.237l-1.479-1.479a1.431,1.431,0,0,0-1.671-.257,12.847,12.847,0,0,1-2.083.871,1.431,1.431,0,0,0-1,1.364v2.083H64.256V80.736a1.429,1.429,0,0,0-1-1.362,12.847,12.847,0,0,1-2.083-.871,1.431,1.431,0,0,0-1.671.257l-1.479,1.479L53.987,76.2l1.479-1.479a1.428,1.428,0,0,0,.257-1.671,12.847,12.847,0,0,1-.871-2.083,1.431,1.431,0,0,0-1.364-1H51.4V64.256h2.083a1.429,1.429,0,0,0,1.362-1,12.849,12.849,0,0,1,.871-2.083,1.428,1.428,0,0,0-.257-1.671l-1.479-1.479,4.038-4.038L59.5,55.466a1.426,1.426,0,0,0,1.671.257,12.847,12.847,0,0,1,2.083-.871,1.431,1.431,0,0,0,1-1.364V51.4h5.712v2.083a1.429,1.429,0,0,0,1,1.362,12.848,12.848,0,0,1,2.083.871,1.426,1.426,0,0,0,1.671-.257L76.2,53.985l4.038,4.038L78.758,59.5a1.428,1.428,0,0,0-.257,1.671,12.847,12.847,0,0,1,.871,2.083,1.431,1.431,0,0,0,1.364,1h2.083Z" fill="#616161"/>
          </g>
        </g>
        <g id="Group_132-2" data-name="Group 132" transform="translate(57.995 57.995)">
          <g id="Group_131-2" data-name="Group 131">
            <path id="Path_15-2" data-name="Path 15" d="M336.741,328a8.741,8.741,0,1,0,8.741,8.741A8.75,8.75,0,0,0,336.741,328Zm0,14.568a5.827,5.827,0,1,1,5.827-5.827A5.833,5.833,0,0,1,336.741,342.568Z" transform="translate(-328 -328)" fill="#616161"/>
          </g>
        </g>
        <g id="Group_134-2" data-name="Group 134" transform="translate(15.653 9.168)">
          <g id="Group_133-2" data-name="Group 133">
            <path id="Path_16-2" data-name="Path 16" d="M100.683,52.4l-2.06-2.06-10.2,10.2a1.455,1.455,0,0,0,0,2.06l10.2,10.2,2.06-2.06-9.168-9.168Z" transform="translate(-87.998 -50.344)" fill="#616161"/>
          </g>
        </g>
        <g id="Group_136-2" data-name="Group 136" transform="translate(47.376 9.168)">
          <g id="Group_135-2" data-name="Group 135">
            <path id="Path_17-2" data-name="Path 17" d="M278.6,60.542l-10.2-10.2-2.06,2.06,9.168,9.168-9.168,9.168,2.06,2.06,10.2-10.2A1.455,1.455,0,0,0,278.6,60.542Z" transform="translate(-266.344 -50.344)" fill="#616161"/>
          </g>
        </g>
        <g id="Group_138-2" data-name="Group 138" transform="translate(30.002 5.184)">
          <g id="Group_137-2" data-name="Group 137" transform="translate(0 0)">
            <rect id="Rectangle_13-2" data-name="Rectangle 13" width="29.311" height="2.914" transform="translate(0 26.215) rotate(-63.435)" fill="#616161"/>
          </g>
        </g>
        <g id="Group_140-2" data-name="Group 140" transform="translate(55.797 28.468)">
          <g id="Group_139-2" data-name="Group 139">
            <rect id="Rectangle_14-2" data-name="Rectangle 14" width="2.906" height="2.906" fill="#616161"/>
          </g>
        </g>
        <g id="Group_142-2" data-name="Group 142" transform="translate(61.49 28.468)">
          <g id="Group_141-2" data-name="Group 141">
            <rect id="Rectangle_15-2" data-name="Rectangle 15" width="2.906" height="2.906" fill="#616161"/>
          </g>
        </g>
        <g id="Group_144-2" data-name="Group 144" transform="translate(67.184 28.468)">
          <g id="Group_143-2" data-name="Group 143">
            <rect id="Rectangle_16-2" data-name="Rectangle 16" width="2.906" height="2.906" fill="#616161"/>
          </g>
        </g>
      </g>
    </g>
    <g id="Group_101" data-name="Group 101" transform="translate(851 902)">
      <g id="Path_28" data-name="Path 28" transform="translate(4 4)" fill="none" opacity="0.25">
        <path d="M72,0A72,72,0,1,1,0,72,72,72,0,0,1,72,0Z" stroke="none"/>
        <path d="M 72 4 C 62.81830596923828 4 53.91336822509766 5.797348022460938 45.53256225585938 9.342132568359375 C 41.50412750244141 11.0460205078125 37.61841583251953 13.1551513671875 33.98334503173828 15.6109619140625 C 30.38175964355469 18.04412841796875 26.994873046875 20.83860778808594 23.91674041748047 23.91674041748047 C 20.83860778808594 26.994873046875 18.04412841796875 30.38175964355469 15.6109619140625 33.98334503173828 C 13.1551513671875 37.61841583251953 11.0460205078125 41.50412750244141 9.342132568359375 45.53256225585938 C 5.797348022460938 53.91336822509766 4 62.81830596923828 4 72 C 4 81.18169403076172 5.797348022460938 90.08663177490234 9.342132568359375 98.46743774414062 C 11.0460205078125 102.4958648681641 13.1551513671875 106.381591796875 15.6109619140625 110.0166473388672 C 18.04412841796875 113.6182403564453 20.83860778808594 117.005126953125 23.91674041748047 120.0832595825195 C 26.994873046875 123.1613922119141 30.38175964355469 125.9558715820312 33.98334503173828 128.3890380859375 C 37.61841583251953 130.8448486328125 41.50412750244141 132.9539794921875 45.53256225585938 134.6578674316406 C 53.91336822509766 138.2026519775391 62.81830596923828 140 72 140 C 81.18169403076172 140 90.08663177490234 138.2026519775391 98.46743774414062 134.6578674316406 C 102.4958648681641 132.9539794921875 106.381591796875 130.8448486328125 110.0166473388672 128.3890380859375 C 113.6182403564453 125.9558715820312 117.005126953125 123.1613922119141 120.0832595825195 120.0832595825195 C 123.1613922119141 117.005126953125 125.9558715820312 113.6182403564453 128.3890380859375 110.0166473388672 C 130.8448486328125 106.381591796875 132.9539794921875 102.4958648681641 134.6578674316406 98.46743774414062 C 138.2026519775391 90.08663177490234 140 81.18169403076172 140 72 C 140 62.81830596923828 138.2026519775391 53.91336822509766 134.6578674316406 45.53256225585938 C 132.9539794921875 41.50412750244141 130.8448486328125 37.61841583251953 128.3890380859375 33.98334503173828 C 125.9558715820312 30.38175964355469 123.1613922119141 26.994873046875 120.0832595825195 23.91674041748047 C 117.005126953125 20.83860778808594 113.6182403564453 18.04412841796875 110.0166473388672 15.6109619140625 C 106.381591796875 13.1551513671875 102.4958648681641 11.0460205078125 98.46743774414062 9.342132568359375 C 90.08663177490234 5.797348022460938 81.18169403076172 4 72 4 M 72 0 C 111.7644958496094 0 144 32.23549652099609 144 72 C 144 111.7644958496094 111.7644958496094 144 72 144 C 32.23549652099609 144 0 111.7644958496094 0 72 C 0 32.23549652099609 32.23549652099609 0 72 0 Z" stroke="none" fill="#1976d2"/>
      </g>
      <g id="Ellipse_1" data-name="Ellipse 1" fill="none" stroke="#616161" stroke-width="4">
        <circle cx="72" cy="72" r="72" stroke="none"/>
        <circle cx="72" cy="72" r="70" fill="none"/>
      </g>
    </g>
  </g>
</svg>
